<svg width="2008" height="1380" xmlns="http://www.w3.org/2000/svg" xmlns:xlink="http://www.w3.org/1999/xlink" xml:space="preserve" overflow="hidden"><defs><clipPath id="clip0"><rect x="1470" y="822" width="2008" height="1380"/></clipPath></defs><g clip-path="url(#clip0)" transform="translate(-1470 -822)"><path d="M2256.59 2045.37C2188.94 2088.92 2122.44 2131.88 2055.56 2174.24 2032.24 2189.01 2009.47 2205.85 1978.82 2201.22 1954.85 2197.59 1934.09 2189.46 1920.22 2168.27 1910.8 2153.89 1902 2138.98 1891.36 2125.55 1869.22 2097.59 1839.89 2091.42 1805.79 2098.14 1766.52 2105.88 1726.63 2110.52 1687.53 2118.94 1655.36 2125.87 1624.72 2120.08 1595.39 2110 1560.21 2097.9 1531.03 2075.82 1508.65 2044.88 1477.7 2002.06 1466.23 1953.91 1471.06 1902.67 1475.47 1855.93 1495.39 1814.19 1520.24 1774.26 1557.51 1714.38 1610.96 1673.26 1669.62 1637.11 1718.1 1607.24 1766.08 1576.57 1814.16 1546.05 1856.21 1519.37 1898.01 1492.3 1940.06 1465.63 1974.05 1444.07 2030.71 1454.39 2057.49 1479.83 2098.77 1519.05 2107.63 1579.55 2087.12 1635.1 2064.57 1696.16 2015.74 1728.82 1964.93 1760.97 1936.35 1779.06 1908.11 1797.68 1879.65 1815.94 1845.65 1837.76 1811.7 1859.66 1777.46 1881.09 1764.2 1889.38 1757.41 1901.08 1759.61 1915.98 1761.99 1932.17 1777.11 1946.06 1792.96 1946.39 1873.42 1948.02 1953.95 1951.13 2034.35 1949.31 2093.14 1947.98 2145.96 1924.12 2194.91 1891.81 2227.2 1870.5 2260.29 1850.41 2292.91 1829.6 2313.14 1816.7 2318.85 1796.3 2307.58 1775.01 2295.19 1751.6 2279.96 1729.48 2269.68 1705.22 2259.51 1681.24 2252.87 1655.44 2260.38 1628.6 2261.12 1625.92 2260.91 1622.95 2260.95 1620.1 2262.12 1540.18 2262.54 1460.23 2264.76 1380.33 2265.64 1348.51 2277.85 1319.06 2294.97 1292.52 2312.62 1265.16 2338.03 1245.63 2367.9 1233.38 2383.56 1226.96 2400.98 1222.29 2417.79 1221.66 2505.4 1218.35 2593.07 1216.69 2680.7 1214.26 2710.25 1213.44 2739.78 1211.74 2769.33 1210.93 2818.87 1209.56 2868.42 1208.77 2917.97 1207.38 2993.66 1205.27 3069.35 1202.96 3145.03 1200.46 3159.66 1199.98 3174.27 1198.48 3188.86 1197.06 3212.19 1194.79 3225.6 1163.88 3210.74 1142.14 3182.58 1100.93 3146.29 1070.71 3092.77 1073.78 3066.28 1075.3 3039.41 1079.03 3013.84 1085.95 2961.49 1100.11 2906.07 1079.77 2879.81 1032.41 2862.37 1000.96 2863.48 945.368 2896.26 909.606 2921.83 881.703 2955.37 876.009 2988.22 867.297 3038.39 853.995 3088.95 842.153 3139.37 829.825 3150.65 827.067 3161.96 824.014 3173.44 822.574 3198.73 819.403 3219.18 829.1 3233.99 858.324 3257.92 905.532 3284.44 951.43 3309.8 997.776 3325.44 992.188 3339.73 986.788 3354.22 981.99 3367.55 977.577 3380.32 981.624 3387.26 992.457 3413.51 1033.43 3439.52 1074.64 3463.26 1117.09 3479.85 1146.77 3481.09 1179.4 3473.62 1212.94 3464.29 1254.8 3442.84 1288.62 3408.1 1312.5 3371.82 1337.45 3333.51 1359.46 3296.14 1382.83 3266.14 1401.59 3236.09 1420.26 3206.3 1439.35 3179.26 1456.67 3152.65 1474.66 3125.66 1492.05 3081.58 1520.45 3037.36 1548.63 2993.18 1576.87 2932.92 1615.38 2872.8 1654.1 2812.32 1692.27 2742.68 1736.24 2672.54 1779.43 2602.95 1823.47 2549.64 1857.21 2496.98 1891.97 2443.77 1925.87 2396.23 1956.15 2348.27 1985.79 2300.62 2015.91 2286.06 2025.11 2271.92 2034.98 2256.59 2045.37M2836.91 1245.25C2813.66 1246.4 2790.42 1247.74 2767.17 1248.64 2733.08 1249.97 2698.99 1250.95 2664.9 1252.13 2599.58 1254.4 2534.27 1256.79 2468.95 1258.94 2455.31 1259.39 2441.63 1258.92 2427.98 1259.02 2370.45 1259.45 2313.3 1303.13 2309.21 1364.7 2305.27 1424.04 2301.34 1483.4 2299.08 1542.81 2297.51 1584.01 2298.57 1625.32 2298.97 1666.57 2299.04 1673.6 2300.28 1681.32 2303.4 1687.5 2315.02 1710.53 2327.42 1733.18 2339.94 1755.74 2358.48 1789.15 2353.5 1831.09 2320.88 1854.09 2293.34 1873.51 2264.34 1890.88 2235.79 1908.86 2210.03 1925.07 2185.25 1943.53 2157.85 1956.27 2109.95 1978.55 2058.54 1988.48 2005.51 1987.81 1937.62 1986.95 1869.73 1985.84 1801.86 1984.17 1791.62 1983.92 1781.34 1980.55 1771.31 1977.79 1738.6 1968.79 1724.36 1942.92 1722.54 1913.06 1720.99 1887.69 1732.66 1865.12 1756.7 1849.99 1824.73 1807.2 1891.71 1762.76 1959.61 1719.77 2000.32 1694 2036.87 1665.94 2053.19 1617.22 2065.13 1581.58 2058.61 1534.14 2030.97 1507.73 2011.54 1489.15 1975.31 1489.35 1957.58 1499.52 1934.57 1512.71 1912.72 1527.92 1890.29 1542.14 1829.37 1580.74 1768.29 1619.09 1707.51 1657.9 1653.19 1692.58 1598.24 1725.9 1560.82 1781.55 1534.14 1821.23 1511.99 1862.13 1508.73 1910.21 1505.56 1956.83 1517.73 1999.99 1549.66 2035.56 1570.83 2059.14 1597.55 2073.6 1628.65 2080.91 1669.13 2090.43 1707.53 2077.85 1746.4 2071.24 1781.93 2065.2 1817.29 2056.1 1853.45 2060.69 1867.54 2062.48 1881.41 2069.97 1894.22 2076.97 1916.23 2089 1927.66 2110.44 1939.27 2131.63 1955.36 2161.03 1984.41 2176.72 2018.88 2152.67 2027.08 2146.95 2035.25 2141.17 2043.7 2135.83 2129.34 2081.7 2215.06 2027.68 2300.72 1973.56 2349.3 1942.87 2398.02 1912.4 2446.28 1881.21 2484.49 1856.52 2521.74 1830.34 2560.05 1805.8 2607.07 1775.69 2654.89 1746.83 2702.1 1717.01 2765.29 1677.09 2828.15 1636.65 2891.3 1596.67 2942.81 1564.05 2994.58 1531.84 3046.15 1499.34 3098.62 1466.27 3151.01 1433.06 3203.42 1399.89 3250.62 1370.02 3298.33 1340.92 3344.78 1309.91 3368.59 1294.01 3392.85 1277.21 3412.11 1256.38 3449.72 1215.71 3448.96 1157.57 3419.06 1112.68 3406.47 1093.8 3393.75 1074.92 3382.59 1055.19 3360.89 1016.83 3361.66 1017.49 3319.97 1032.46 3310.67 1035.81 3295.56 1033.72 3287.81 1027.89 3278.48 1020.88 3273.77 1007.42 3267.73 996.391 3245.64 956.097 3223.75 915.692 3201.94 875.243 3194.08 860.646 3183.45 856.949 3167.29 862.132 3147.34 868.528 3126.58 872.356 3106.19 877.388 3055.21 889.967 3004.12 902.085 2953.35 915.427 2928.14 922.052 2903.54 946.46 2906.91 993.625 2908.68 1018.36 2930.47 1040.99 2958.97 1049.82 2982.28 1057.04 3003 1049.24 3024.31 1043.73 3062.46 1033.86 3100.41 1031.14 3138.93 1041.95 3183.12 1054.35 3215 1081.96 3240.24 1119.33 3268.55 1161.25 3249.48 1220.84 3202.73 1230.99 3176.6 1236.66 3149.16 1236.86 3122.25 1238.2 3084.76 1240.06 3047.21 1240.88 3009.68 1241.77 2953.22 1243.1 2896.75 1244.11 2836.91 1245.25Z" fill="#FFFFFF" fill-rule="evenodd"/></g></svg>