<svg width="1249" height="1345" xmlns="http://www.w3.org/2000/svg" xmlns:xlink="http://www.w3.org/1999/xlink" xml:space="preserve" overflow="hidden"><defs><clipPath id="clip0"><rect x="590" y="342" width="1249" height="1345"/></clipPath></defs><g clip-path="url(#clip0)" transform="translate(-590 -342)"><path d="M1748.07 1665.65C1724.17 1680.15 1699.16 1686.87 1672.69 1686.88 1332.97 1687.03 993.249 1686.96 653.532 1687 616.56 1687.01 605.494 1672.84 595.399 1651.52 583.559 1626.51 592.231 1602.93 611.297 1586.63 639.104 1562.85 669.423 1541.82 699.773 1521.25 754.878 1483.9 816.992 1472.09 882.565 1473.65 915.201 1474.43 947.876 1474.2 980.521 1473.69 1029.52 1472.92 1078.54 1472.23 1127.47 1469.84 1140.06 1469.23 1153.71 1464.6 1164.49 1457.95 1187.31 1443.86 1187.27 1390.22 1149.04 1373.99 1114.65 1359.38 1080.12 1344.55 1044.53 1333.42 1005.34 1321.17 980.755 1297.87 972.34 1257.53 955.249 1175.61 938.032 1093.72 920.742 1011.84 909.526 958.732 897.346 905.816 886.954 852.553 876.018 796.501 869.359 739.91 872.601 682.579 873.383 668.763 869.319 659.059 856.513 650.487 807.181 617.464 759.124 582.544 710.24 548.842 678.029 526.634 654.759 497.61 649.767 458.687 644.539 417.921 676.062 372.802 718.382 356.021 762.454 338.547 807.242 340.349 852.779 345.752 886.79 349.788 921.041 351.922 954.971 356.499 989.668 361.18 1024.29 366.919 1058.59 373.907 1079.78 378.225 1094.98 397.673 1091.92 419.556 1088.55 443.577 1101.84 456.883 1117.46 468.176 1156.54 496.425 1197.08 522.642 1236.48 550.459 1257.69 565.436 1278.27 565.583 1299.69 552.16 1322.21 538.046 1344.65 523.805 1367.16 509.672 1401.69 487.991 1453.98 493.078 1481.76 531.86 1513.4 576.013 1532.34 625.933 1555.59 673.906 1577.91 719.973 1615.32 744.947 1662.77 758.708 1703.92 770.643 1745.27 782.3 1785.51 796.904 1815.86 807.924 1840.26 837.248 1838.95 873.989 1837.11 925.499 1839.36 977.146 1838.26 1028.7 1836.9 1092.92 1834.57 1157.14 1831.38 1221.3 1829.11 1266.94 1824.5 1312.45 1821.37 1358.05 1818.87 1394.71 1810.24 1410.37 1783.34 1416.59 1771.41 1419.35 1757.98 1416.61 1745.36 1415.18 1719.24 1412.22 1693.31 1407.27 1667.13 1405.29 1623.66 1402.01 1580.08 1399.33 1536.51 1398.75 1521.83 1398.56 1505.07 1402.35 1492.84 1410.04 1477.77 1419.5 1481.21 1454.19 1496.99 1462.73 1507.81 1468.59 1520.84 1473.04 1532.98 1473.3 1585.09 1474.44 1637.31 1475.46 1689.35 1473.26 1731.74 1471.46 1785.95 1506.1 1794.31 1550.05 1803.59 1598.86 1793.86 1633.17 1748.07 1665.65M1804.11 878.518C1804.46 845.25 1780.74 833.005 1754.91 824.023 1725.82 813.907 1696.64 802.725 1666.56 797.055 1597.04 783.954 1548.59 746.151 1518.62 682.592 1499.82 642.734 1481.04 602.726 1459.41 564.391 1440.5 530.891 1414.78 522.317 1380.37 544.393 1354.34 561.088 1328.27 578.002 1300.77 591.973 1288.66 598.129 1272.01 601.426 1259.11 598.522 1240.82 594.405 1222.91 585.193 1206.93 574.902 1169.66 550.9 1133.17 525.609 1097.27 499.58 1071.33 480.76 1047.57 459.589 1054.71 421.959 1056.77 411.095 1049.2 408.935 1040.83 407.825 1023.7 405.553 1006.4 404.096 989.503 400.702 919.739 386.695 849.402 379.399 778.209 380.234 755.962 380.495 736.438 386.616 717.524 399.022 670.056 430.159 685.032 482.995 715.47 505.862 761.527 540.462 809.654 572.371 857.632 604.325 891.203 626.684 914.872 652.023 907.65 697.161 903.999 719.98 904.33 744.507 908.386 767.277 918.875 826.145 932.326 884.487 944.797 942.997 958.185 1005.81 972.189 1068.5 985.172 1131.4 992.012 1164.54 998.038 1197.89 1002.98 1231.35 1007.69 1263.15 1020.51 1287.16 1053.09 1298.09 1088.56 1309.99 1123.51 1323.42 1158.67 1336.21 1211.05 1355.27 1237.16 1420.26 1204.56 1470.49 1184.87 1500.82 1153.72 1506.62 1122.75 1507.58 1032.02 1510.39 941.184 1509.94 850.419 1511.99 828.826 1512.48 806.779 1515.61 785.914 1521.18 727.634 1536.72 681.078 1572.57 636.732 1611.65 628.25 1619.13 623.186 1627.09 628.513 1638.99 633.673 1650.52 643.335 1649.18 652.946 1649.18 989.145 1649.15 1325.34 1649.26 1661.54 1648.86 1679.76 1648.84 1698.62 1646.77 1716.05 1641.72 1740.57 1634.62 1769.8 1596.58 1760.77 1565.05 1749.75 1526.54 1721.45 1509.37 1686.87 1508.47 1667.71 1507.97 1648.49 1511.13 1629.29 1511.46 1597.22 1512.01 1565.12 1512.34 1533.07 1511.4 1503.06 1510.51 1477 1500.75 1458.99 1474.34 1438.35 1444.09 1443.69 1400.88 1470.62 1378.84 1487.69 1364.87 1507.97 1360.7 1527.99 1360.89 1573.25 1361.34 1618.49 1364.66 1663.71 1367.38 1674.18 1368.01 1684.45 1371.48 1694.91 1372.74 1719.98 1375.76 1745.07 1378.8 1770.24 1380.4 1774.42 1380.66 1782.58 1373.98 1782.95 1369.96 1787.22 1323.33 1790.73 1276.61 1793.69 1229.86 1796.48 1185.76 1798.61 1141.61 1800.6 1097.46 1802.11 1063.96 1803.47 1030.42 1803.98 996.89 1804.56 958.509 1804.11 920.117 1804.11 878.518Z" fill="#FFFFFF" fill-rule="evenodd"/></g></svg>