<svg width="1860" height="1020" xmlns="http://www.w3.org/2000/svg" xmlns:xlink="http://www.w3.org/1999/xlink" xml:space="preserve" overflow="hidden"><defs><clipPath id="clip0"><rect x="1273" y="732" width="1860" height="1020"/></clipPath></defs><g clip-path="url(#clip0)" transform="translate(-1273 -732)"><path d="M1697.88 1707.03C1644.51 1704.94 1593.7 1711.84 1542.84 1720.33 1499.13 1727.62 1454.93 1731.87 1411.03 1738.1 1384.45 1741.87 1357.96 1746.42 1331.57 1751.37 1313.34 1754.79 1286.8 1743.84 1277.24 1727.75 1269.21 1714.24 1272.64 1687.16 1287.06 1673.57 1320.06 1642.47 1354.31 1612.69 1388 1582.31 1401.92 1569.76 1415.64 1556.99 1429.56 1544.43 1439.22 1535.71 1448.33 1526.12 1458.97 1518.77 1478.99 1504.94 1479.04 1485.51 1470.74 1467.67 1454.18 1432.1 1461.94 1398.66 1474.39 1365.06 1506.89 1277.43 1539.83 1189.95 1572.66 1102.44 1580.09 1082.61 1588.51 1063.12 1595.18 1043.05 1607.49 1006.03 1634.8 984.629 1668.47 968.802 1684.14 961.431 1699.23 952.739 1714.27 944.102 1727.64 936.43 1734.32 925.722 1736.84 909.135 1741.66 877.464 1743.72 869.376 1776.62 861.405 1815.08 852.09 1853.39 842.038 1892.09 833.894 1915.63 828.943 1939.77 826.867 1963.67 823.724 1998.73 819.111 2033.72 812.599 2068.94 810.792 2104.09 808.989 2139.83 809.185 2174.69 813.517 2230.69 820.476 2287.01 828.207 2341.65 841.835 2397.24 855.701 2452.84 854.861 2508.83 854.474 2573.32 854.03 2637.84 853.107 2702.29 850.93 2745.33 849.477 2784.88 832.991 2824.12 817.044 2877.28 795.446 2929.64 771.898 2983.06 750.992 3006.14 741.955 3030.71 734.756 3055.18 732.098 3065.89 730.934 3082.82 740.361 3088.66 749.991 3104.47 776.101 3116.94 804.443 3128.67 832.756 3138.87 857.374 3130.86 875.724 3106.65 887.484 3071.95 904.346 3036.15 919.093 3002.14 937.211 2982.07 947.901 2962.58 961.32 2946.23 977.043 2894.58 1026.69 2845.18 1078.68 2793.69 1128.49 2744.81 1175.77 2687.92 1210.33 2623.41 1233.19 2589.38 1245.24 2557.16 1262.39 2524.05 1277.08 2505.94 1285.11 2496.27 1280.43 2484.71 1262.6 2481.32 1257.37 2471.65 1253.55 2464.89 1253.6 2416.43 1253.96 2367.99 1255.52 2319.54 1256.6 2265.93 1257.81 2212.32 1258.73 2158.72 1260.13 2131.46 1260.85 2104.18 1261.87 2076.97 1263.63 2052.08 1265.24 2028.88 1259.11 2006.62 1249.3 1996.17 1244.7 1989.42 1244.82 1982.92 1255.2 1971.96 1272.72 1960.57 1290.04 1948.26 1306.63 1933.85 1326.05 1944.51 1345.52 1948.14 1364.02 1958.53 1417.08 1972.01 1469.54 1983.02 1522.49 1992.5 1568.09 1977.98 1609.94 1958.54 1650.16 1948.87 1670.18 1937.17 1689.27 1925.7 1708.36 1912.79 1729.85 1889.57 1731.49 1869.42 1730.04 1829.85 1727.19 1790.63 1719.5 1751.24 1713.92 1734.03 1711.49 1716.79 1709.32 1697.88 1707.03M3013.71 896.076C3039.06 884.589 3064.12 872.374 3089.89 861.901 3104.26 856.061 3104.41 848.003 3098.62 836.259 3086.35 811.383 3074.39 786.353 3061.5 759.722 3048.89 761.97 3036.62 762.11 3026.02 766.383 2964.99 790.982 2904.56 817.049 2843.52 841.599 2813.08 853.843 2782.51 867.855 2750.64 873.93 2714.78 880.765 2677.42 880.05 2640.67 881.711 2601.98 883.46 2563.22 885.594 2524.54 884.929 2470.61 884.003 2416.31 884.013 2362.93 877.429 2300.38 869.715 2239.02 852.116 2176.44 844.942 2130.01 839.619 2082.27 841.475 2035.46 844.909 1985.78 848.553 1936.26 856.446 1887.14 865.116 1851.06 871.483 1815.67 881.824 1780.12 890.972 1769.23 893.774 1766.23 902.178 1766.51 913.317 1767.03 933.691 1759.56 950.632 1741.17 961.422 1719.95 973.874 1698.67 986.249 1677.5 998.794 1660.72 1008.73 1641.27 1015.75 1632.95 1035.66 1613.21 1082.91 1592.7 1129.87 1574.54 1177.73 1549.85 1242.79 1527.63 1308.78 1503.24 1373.96 1491.14 1406.28 1491.04 1436.95 1502.77 1469.74 1511.01 1492.75 1508.29 1516.82 1487.17 1534.83 1475.08 1545.13 1463.68 1556.23 1451.72 1566.68 1426.43 1588.79 1400.62 1610.34 1375.68 1632.84 1353.23 1653.09 1331.31 1673.98 1310.02 1695.45 1306.39 1699.11 1304.14 1709.29 1306.54 1712.57 1309.99 1717.27 1318.12 1719.76 1324.6 1720.65 1330.37 1721.44 1336.57 1718.48 1342.65 1717.69 1370.5 1714.08 1398.47 1711.24 1426.23 1707.02 1459.34 1701.98 1492.15 1694.89 1525.31 1690.37 1566.54 1684.76 1607.9 1679.39 1649.38 1676.7 1681.93 1674.59 1715.02 1674.25 1747.4 1677.64 1783.96 1681.46 1819.86 1691.29 1856.31 1696.71 1889.2 1701.6 1904.26 1693.18 1916.28 1666.3 1926.06 1644.41 1935.01 1622.15 1944.53 1600.14 1955.28 1575.28 1956.11 1548.67 1951.31 1523.41 1941 1469.26 1927.86 1415.61 1914.54 1362.1 1909.41 1341.49 1903.84 1321.73 1916.19 1302.21 1930.83 1279.05 1945.61 1255.95 1960.89 1233.2 1975.25 1211.83 1999.09 1214.25 2017.99 1220.33 2036.86 1226.4 2056.84 1231.79 2076.45 1232.23 2116.84 1233.14 2157.31 1230.64 2197.73 1229.38 2230.15 1228.37 2262.55 1226.8 2294.97 1226.04 2354.88 1224.65 2414.79 1223.43 2474.71 1222.73 2487.7 1222.58 2502.6 1224.36 2507.92 1237.92 2512.55 1249.75 2516.98 1247.46 2525.23 1243.57 2538.84 1237.15 2553.02 1231.92 2566.82 1225.88 2601.45 1210.72 2636.68 1196.75 2670.39 1179.75 2708.9 1160.32 2744.07 1135.75 2774.34 1104.25 2804.62 1072.75 2837.43 1043.68 2867.39 1011.9 2910.01 966.713 2951.89 921.088 3013.71 896.076Z" fill="#FAFAFA" fill-rule="evenodd"/></g></svg>