<svg width="1885" height="701" xmlns="http://www.w3.org/2000/svg" xmlns:xlink="http://www.w3.org/1999/xlink" xml:space="preserve" overflow="hidden"><defs><clipPath id="clip0"><rect x="1324" y="703" width="1885" height="701"/></clipPath></defs><g clip-path="url(#clip0)" transform="translate(-1324 -703)"><path d="M1727.49 1342.55C1701.12 1342.55 1676.41 1342.54 1651.7 1342.56 1604.73 1342.6 1559.7 1331.04 1514.36 1320.56 1486.35 1314.08 1457.79 1314.54 1429.51 1321.87 1385.31 1333.33 1349.64 1322.8 1328.83 1280.69 1321.44 1265.74 1323.73 1243.44 1327.74 1225.91 1337.9 1181.46 1368.16 1152.93 1410.03 1137.24 1430.11 1129.71 1451.06 1124 1472.05 1119.52 1502.92 1112.94 1530.15 1124.34 1554.91 1141.47 1571.51 1152.96 1586.43 1166.85 1602.69 1178.86 1633.35 1201.5 1667.31 1201.55 1698.97 1180.49 1717.6 1168.09 1736.47 1156.02 1755.75 1144.66 1800.49 1118.3 1844.06 1127.44 1886.95 1150.1 1920.53 1167.85 1954.13 1185.53 1987.76 1203.16 2038.19 1229.6 2088.63 1256 2139.11 1282.34 2180.99 1304.2 2224.76 1306.98 2271.66 1302.94 2311.2 1299.53 2345.16 1286.46 2378.46 1267.75 2407.17 1251.61 2424.73 1229.34 2421.88 1194.19 2420.54 1177.68 2421.26 1160.96 2421.75 1144.36 2422.41 1122.37 2432.56 1105.04 2449.74 1091.74 2459.96 1083.85 2470.25 1076.03 2480.83 1068.65 2501.68 1054.12 2500.87 1035.6 2478.25 1023.58 2418.1 991.615 2357.56 960.375 2297.66 927.952 2216.15 883.831 2135.52 838.067 2053.62 794.684 2020.64 777.211 1985.06 763.186 1947.22 762.086 1911.94 761.06 1876.07 763.315 1843.32 779.06 1817.3 791.573 1792.45 806.497 1766.54 819.276 1710.94 846.701 1655.6 847.299 1602.46 813.296 1579.52 798.617 1557.8 781.845 1536.59 764.704 1523.85 754.413 1525.19 737.887 1529.68 725.067 1534.58 711.073 1546.13 702.985 1563.85 703 2091.97 703.426 2620.09 703.322 3148.2 703.525 3158.77 703.529 3169.6 705.18 3179.84 707.873 3193.63 711.501 3204.29 730.196 3201.28 744.21 3196.26 767.613 3189.87 790.761 3185.94 814.331 3184.95 820.217 3189.45 829.38 3194.38 833.444 3208.93 845.434 3213.59 862.021 3203.93 877.471 3197.1 888.381 3188.51 898.34 3182.79 909.765 3165.52 944.265 3134.53 951.883 3100.25 954.064 3085.07 955.029 3069.91 957.149 3054.73 957.235 3035.91 957.342 3031.19 972.258 3027.22 984.765 3023.17 997.546 3025.58 1011.77 3038.76 1020.41 3052.78 1029.6 3067.37 1037.94 3081.29 1047.26 3089.68 1052.87 3097.84 1059.06 3105.14 1066.01 3120.27 1080.4 3121.74 1103.36 3105.49 1116.45 3085.12 1132.87 3062.78 1147.25 3039.94 1160.1 2959.14 1205.56 2876.56 1247.61 2790.14 1281.48 2713.09 1311.68 2635.99 1341.88 2558.12 1369.84 2515.56 1385.11 2471.04 1394.19 2425.64 1397.62 2398.63 1399.66 2371.59 1404.63 2344.68 1403.93 2285.06 1402.38 2226.55 1393.49 2170.71 1370.37 2137.88 1356.78 2104.83 1340.04 2070.37 1334.99 2025.95 1328.48 1980.03 1332.25 1934.74 1331.64 1932.49 1331.61 1930.24 1332.14 1927.98 1332.22 1892.14 1333.39 1856.28 1334.02 1820.47 1335.83 1789.99 1337.37 1759.59 1340.26 1727.49 1342.55M3031.38 1054.04C2981.93 1025.86 2986.23 966.673 3019.97 938.42 3038.13 923.214 3060.31 921.904 3082.46 923.553 3122.27 926.515 3150.22 911.401 3168.22 874.795 3174.06 862.927 3175.43 857.729 3163.86 850.435 3159.01 847.382 3154.3 839.814 3154.25 834.257 3154.13 819.736 3155.79 805.051 3158.25 790.692 3161.21 773.466 3165.73 756.509 3170.29 736.308 2775.12 736.308 2384.55 736.308 1993.73 736.308 2013.78 744.332 2034.85 750.998 2054.28 760.891 2100.64 784.498 2146.31 809.463 2192.09 834.191 2233.79 856.709 2275.16 879.834 2316.86 902.324 2352.74 921.667 2389.04 940.221 2424.87 959.637 2450.41 973.482 2475.85 987.613 2500.71 1002.64 2528.32 1019.34 2542.9 1059.54 2509.43 1084.54 2497.71 1093.3 2486.74 1103.1 2474.74 1111.43 2460.35 1121.4 2451.92 1133.93 2452.23 1151.9 2452.5 1167.94 2451.76 1184 2452.39 1200.02 2454.04 1242.41 2432.7 1270.92 2398.32 1292.03 2363.13 1313.65 2325.85 1328.03 2284.22 1332.87 2231.69 1338.98 2180.87 1338.02 2132.68 1313.2 2085.53 1288.91 2038.23 1264.92 1991.16 1240.47 1957.89 1223.19 1925.29 1204.54 1891.63 1188.07 1869.77 1177.37 1847.25 1165.98 1823.73 1161.13 1786.81 1153.52 1757.9 1176.52 1730.98 1197.01 1692.4 1226.38 1651.01 1235.79 1606.65 1218 1586.56 1209.95 1569.5 1193.43 1552.32 1179.25 1528.9 1159.92 1503.04 1143.17 1472.74 1151.02 1444.22 1158.41 1417.19 1172.81 1390.74 1186.53 1372.88 1195.8 1362.16 1213.32 1357.79 1232.88 1353.7 1251.16 1350.21 1272.02 1370.85 1282.73 1382.51 1288.77 1398.43 1293.03 1410.72 1290.32 1465.86 1278.17 1518.95 1287.26 1572.47 1299.52 1598.57 1305.5 1625.56 1311.66 1652.03 1311.18 1722.34 1309.89 1792.56 1304.35 1862.87 1301.81 1922.72 1299.65 1982.62 1299.01 2042.51 1298.41 2054.17 1298.29 2066.44 1299.7 2077.44 1303.38 2111.61 1314.8 2144.92 1328.87 2179.29 1339.61 2216.4 1351.21 2253.92 1366.35 2291.99 1368.87 2345.48 1372.42 2400.23 1369.81 2453.36 1362.25 2500.36 1355.57 2546.36 1340.05 2591.89 1325.57 2627.87 1314.12 2662.71 1298.9 2697.62 1284.32 2762.37 1257.29 2827.71 1231.42 2891.11 1201.47 2948.24 1174.49 3003.21 1142.9 3058.85 1112.81 3068.75 1107.45 3077.23 1099.43 3089.75 1090.13 3068.49 1077.14 3050.91 1066.39 3031.38 1054.04M1581.14 761.695C1591.77 768.888 1602.41 776.073 1613.04 783.277 1658.74 814.255 1706.56 816.359 1753.66 788.975 1788.5 768.718 1823.19 749.405 1862.82 740.41 1865.5 739.802 1867.73 737.213 1871.29 734.779 1766.15 734.779 1662.88 734.779 1559.62 734.779 1558.44 736.271 1557.25 737.763 1556.07 739.255 1563.8 746.167 1571.53 753.079 1581.14 761.695Z" fill="#FAFAFA" fill-rule="evenodd"/></g></svg>