<svg width="1775" height="1370" xmlns="http://www.w3.org/2000/svg" xmlns:xlink="http://www.w3.org/1999/xlink" xml:space="preserve" overflow="hidden"><defs><clipPath id="clip0"><rect x="412" y="249" width="1775" height="1370"/></clipPath></defs><g clip-path="url(#clip0)" transform="translate(-412 -249)"><path d="M853.799 1514.4C847.258 1548.12 838.107 1577.95 807.863 1597.85 779.203 1616.7 748.288 1617.21 717.279 1612.78 679.497 1607.39 641.772 1599.94 604.915 1590.06 515.008 1565.95 444.805 1526.06 421.686 1423.3 408.122 1363.01 404.945 1301.63 437.946 1245.49 456.149 1214.52 478.082 1185.68 499.185 1156.49 548.376 1088.47 598.133 1020.85 647.564 952.995 702.548 877.517 757.311 801.878 812.38 726.466 868.782 649.219 925.494 572.198 981.972 495.006 1031.21 427.712 1079.18 359.454 1129.83 293.246 1168.84 242.261 1212 234.961 1266.78 273.307 1289.56 289.259 1299.09 334.631 1284.21 360.697 1268.1 388.902 1248.87 415.351 1230.59 442.289 1203.52 482.184 1176.84 522.371 1148.62 561.447 1116.51 605.917 1106.69 658.039 1094.41 709.498 1080.29 768.63 1045.46 786.835 992.462 796.422 958.99 802.48 924.909 805.146 891.368 810.874 869.724 814.571 857.535 835.679 860.691 859.625 863.231 878.912 879.537 893.887 900.339 892.605 939.061 890.221 977.617 884.781 1016.35 883.042 1051.52 881.465 1086.54 874.754 1122.15 885.42 1167.53 899.01 1215.21 905.549 1259.71 921.289 1303.08 936.628 1342.89 961.753 1385.77 978.783 1419.33 992.108 1454.87 1000.95 1490.11 1009.35 1523.97 1017.42 1554.87 1002.46 1586.48 992.829 1617.58 983.353 1649.26 975.46 1681.09 968.832 1705.61 963.725 1730.73 959.228 1755.65 958.881 1784.21 958.482 1813.72 959.334 1841.25 966.048 1907.01 982.091 1972.11 1001.02 2036.96 1020.5 2076.81 1032.48 2115.28 1047.77 2145.47 1079.05 2184.72 1119.72 2191.53 1167.86 2184.65 1221.28 2177.05 1280.26 2140.5 1318.36 2098.57 1355.69 2053.11 1396.16 2010.71 1440.26 1969.08 1484.74 1938.45 1517.46 1913 1555.08 1881.85 1587.23 1858.86 1610.97 1828.72 1624.29 1793.47 1617.01 1722.79 1602.42 1659.72 1570.66 1603.72 1526.5 1566.01 1496.76 1537.24 1458.73 1527.7 1409.34 1523.98 1390.07 1537.59 1357.86 1556.98 1347.15 1588.35 1329.82 1621.08 1317.23 1658.29 1318.72 1711.82 1320.87 1765.51 1323.51 1818.97 1321.57 1851.06 1320.41 1885.12 1312.5 1901.81 1280.21 1920.88 1243.33 1908.64 1212.63 1868.75 1195.74 1803.68 1168.19 1736.19 1147.36 1667.43 1131.62 1624.11 1121.7 1579.84 1115.48 1535.72 1109.75 1503.31 1105.54 1470.43 1102.67 1437.79 1102.98 1384.48 1103.5 1331.01 1105 1277.95 1109.88 1204.25 1116.66 1130.65 1125.34 1059.03 1145.77 1046.27 1149.41 1032.42 1150.09 1019.03 1150.37 998.639 1150.81 986.354 1137.74 977.723 1121.22 972.155 1110.55 968.687 1098.81 963.61 1087.86 956.405 1072.33 945.299 1062.6 926.662 1064.64 911.559 1066.3 888.247 1082.2 885.305 1094.69 883.016 1104.39 881.971 1114.49 881.393 1124.47 877.763 1187.19 874.577 1249.94 870.909 1312.66 868.999 1345.34 866.806 1378.01 863.997 1410.63 861.062 1444.75 857.236 1478.79 853.799 1514.4M817.797 775.997C786.201 819.038 754.444 861.962 723.055 905.15 681.581 962.21 640.566 1019.61 599.032 1076.63 560.706 1129.24 522.751 1182.16 483.114 1233.78 456.454 1268.5 447.138 1308.37 445.515 1350.04 444.686 1371.3 451.824 1392.83 455.029 1414.28 464.301 1476.37 501.025 1516.41 557.734 1538.57 588.414 1550.56 619.997 1561.67 652.192 1567.97 687.201 1574.83 721.955 1586.01 759.019 1580.51 792.347 1575.57 815.421 1557.54 819 1523.85 825.005 1467.3 828.903 1410.52 833.034 1353.79 835.014 1326.64 834.804 1299.33 836.815 1272.18 840.888 1217.15 845.652 1162.17 850.513 1107.2 851.283 1098.51 853.311 1089.74 856.026 1081.43 865.706 1051.8 895.857 1028.51 947.193 1033.62 966.697 1035.56 990.531 1060.1 998.23 1088.38 1004.86 1112.74 1020.88 1121.66 1045.84 1115.02 1061.81 1110.77 1077.61 1105.41 1093.85 1102.75 1133.47 1096.25 1173.16 1089.67 1213.07 1085.6 1270.24 1079.77 1327.58 1073.47 1384.95 1072.35 1439.84 1071.27 1495.09 1066.54 1549.91 1078.11 1593.94 1087.4 1639.33 1090.85 1682.81 1102 1740.32 1116.75 1797.13 1134.87 1853.16 1154.62 1895.68 1169.61 1938.5 1186.24 1942.2 1243.18 1943.67 1266.01 1930.26 1307.15 1910.84 1322.22 1881.5 1345.01 1847.24 1354.88 1811.86 1356.04 1760.1 1357.73 1708.09 1355.88 1656.35 1352.8 1622.15 1350.75 1593.71 1360.64 1569 1382.9 1565.05 1386.45 1562.49 1393.3 1562.16 1398.79 1560.2 1431.77 1579.15 1456.34 1599.65 1477.91 1651.57 1532.54 1717.81 1563.82 1789.43 1582.69 1815.07 1589.44 1842.51 1585.43 1861.47 1560.85 1872.43 1546.65 1884.22 1533.07 1895.91 1519.44 1917.91 1493.81 1939.13 1467.4 1962.46 1443.02 1996.16 1407.79 2030.66 1373.21 2066.3 1339.93 2103.56 1305.13 2141.97 1273.54 2151.08 1217.56 2162.79 1145.63 2130.95 1089.61 2065.27 1065.44 2009.03 1044.74 1950.46 1030.32 1892.92 1013.14 1838.3 996.822 1783.08 987.665 1725.76 995.802 1676.27 1002.83 1627.26 1011.61 1580.62 1030.12 1541.3 1045.72 1500.8 1047.42 1460.2 1039.42 1420.64 1031.63 1384 1015.05 1347.73 997.372 1307.15 977.597 1266.14 958.128 1223.76 942.786 1190.71 930.815 1155.61 923.437 1120.81 917.644 1094.7 913.297 1067.51 912.469 1041.03 914.06 994.518 916.854 948.269 924.86 901.759 926.595 862.705 928.048 833.172 903.937 826.85 860.959 821.667 825.728 836.382 795.088 876.447 783.247 906.028 774.506 937.29 771.472 967.772 765.73 984.051 762.665 1000.7 760.638 1016.42 755.707 1051.91 744.578 1061.03 714.206 1066.88 682.209 1075.17 636.862 1087.03 592.355 1112.96 553.859 1152.96 494.491 1194.52 436.145 1236.75 378.337 1253.48 355.45 1259.66 330.325 1249.95 305.811 1239.51 279.466 1185.61 276.391 1167.84 299.395 1131.41 346.548 1095.63 394.21 1060.19 442.113 1024.17 490.805 988.847 540.014 953.281 589.046 908.589 650.655 863.966 712.312 817.797 775.997Z" fill="#FFFFFF" fill-rule="evenodd"/></g></svg>