<svg width="1890" height="929" xmlns="http://www.w3.org/2000/svg" xmlns:xlink="http://www.w3.org/1999/xlink" xml:space="preserve" overflow="hidden"><defs><clipPath id="clip0"><rect x="1257" y="776" width="1890" height="929"/></clipPath></defs><g clip-path="url(#clip0)" transform="translate(-1257 -776)"><path d="M2785.38 1671.04C2771 1692.69 2750.25 1701.17 2727.32 1701.32 2480.13 1702.94 2232.94 1703.94 1985.75 1705 1964.8 1705.09 1949.36 1691.09 1945.61 1669.59 1939.39 1633.91 1914.87 1610.62 1878.44 1609.16 1855.69 1608.24 1832.81 1611.8 1809.97 1612.06 1764.16 1612.58 1718.19 1614.41 1672.55 1611.59 1628.37 1608.86 1584.17 1602.89 1540.63 1594.82 1489.73 1585.38 1439.37 1572.82 1389.18 1560.03 1376.82 1556.87 1363.84 1549.69 1355.01 1540.61 1342.02 1527.23 1347.02 1510.57 1354.25 1495.01 1364.1 1473.83 1372.31 1451.83 1383.27 1431.27 1393.26 1412.52 1388.94 1398.31 1374.68 1384.98 1346.37 1358.51 1319.03 1330.9 1289.5 1305.88 1265.39 1285.44 1253.38 1261.99 1257.96 1230.35 1262.46 1199.25 1266.78 1168.12 1270.54 1136.92 1275.13 1098.84 1291.97 1065.34 1309.6 1032.33 1330.08 993.975 1342.36 952.879 1350.14 910.685 1355.21 883.22 1383.2 868.992 1403.58 866.898 1438 863.362 1467.69 850.278 1491.39 826.363 1518.57 798.934 1552.18 788.102 1588.2 780.261 1646.79 767.507 1698.27 784.468 1746.15 816.679 1789.71 845.982 1833.67 874.813 1875.78 906.118 1900.32 924.366 1912.68 952.136 1917.56 982.234 1923.97 1021.8 1935.06 1059.57 1958.98 1092.23 1988.81 1132.96 2016.59 1175.79 2050.78 1212.57 2088.96 1253.63 2140.69 1275.74 2195.53 1285.06 2233.8 1291.56 2273.39 1292.57 2312.35 1292.1 2346.57 1291.69 2380.8 1286.37 2414.88 1282.11 2434.15 1279.71 2447.58 1268.17 2457.97 1251.51 2469.51 1233.01 2482.23 1215.03 2496.4 1198.51 2501.95 1192.04 2512.51 1187.64 2521.31 1186.56 2574.38 1180.01 2627.47 1172.51 2680.79 1169.51 2750.92 1165.57 2819.98 1167.02 2884.55 1204.57 2942.46 1238.25 3004.2 1265.31 3064.06 1295.68 3085.97 1306.8 3107.55 1318.66 3128.87 1330.9 3147.29 1341.48 3152.86 1359.29 3140.04 1374.03 3095.37 1425.38 3066.97 1485.89 3038.09 1546.5 3021.46 1581.39 2994.05 1595.04 2954.41 1585.39 2904.1 1573.13 2853.9 1560.47 2803.67 1547.87 2793.02 1545.2 2786.69 1547.88 2787.45 1560 2788.48 1576.37 2787.41 1593.32 2791.43 1608.94 2796.99 1630.54 2791.43 1650.02 2785.38 1671.04M2923.82 1261.29C2893.97 1246.47 2864.55 1230.68 2834.16 1217.04 2778.74 1192.15 2720.26 1199.47 2662.46 1203.9 2620.95 1207.08 2579.66 1213.14 2538.15 1216.3 2527.32 1217.13 2519.49 1219.82 2513.59 1228.19 2501.37 1245.55 2489.42 1263.11 2477.42 1280.63 2467.28 1295.45 2454.36 1306.43 2436.21 1309.59 2408.65 1314.39 2380.99 1322.85 2353.45 1322.57 2287.98 1321.9 2221.61 1332.4 2157.35 1309.79 2111.63 1293.71 2068.59 1273.44 2032.42 1240.37 1994.13 1205.34 1966.63 1162.04 1938.25 1119.3 1911.61 1079.18 1891.23 1037.16 1886.35 988.059 1884.53 969.742 1876.73 952.062 1861.51 938.222 1818.51 899.097 1769.69 868.574 1720.2 838.801 1682.31 816.007 1643.52 800.313 1597.59 810.679 1567.22 817.535 1538.29 825.552 1514.99 847.76 1487.62 873.838 1456.04 891.657 1417.87 897.351 1400.67 899.918 1381.21 901.62 1378.11 925.543 1372.28 970.443 1355.34 1011.35 1335.78 1051.94 1321.65 1081.28 1310.61 1112.76 1303.04 1144.44 1296.04 1173.73 1298.1 1205.18 1291.26 1234.53 1285.9 1257.54 1296.8 1269.25 1310.84 1282.07 1339.79 1308.5 1369.01 1334.67 1397.23 1361.87 1417.2 1381.11 1430.08 1403.71 1418.06 1432.67 1410.15 1451.74 1401.85 1470.68 1392.84 1489.26 1377.97 1519.89 1377.66 1519.75 1409.18 1531.76 1413.85 1533.54 1418.45 1535.74 1423.29 1536.79 1466.89 1546.18 1510.29 1556.83 1554.24 1564.18 1593.55 1570.75 1633.39 1576.37 1673.14 1577.54 1745.34 1579.64 1817.64 1577.44 1889.88 1578.42 1927.66 1578.93 1968.3 1614.22 1975.89 1651.8 1979.38 1669.12 1986.94 1674.91 2005.1 1674.84 2194.11 1674.14 2383.14 1674.48 2572.15 1674.27 2586.83 1674.25 2601.48 1671.52 2616.17 1671.3 2649.54 1670.78 2683.23 1673.78 2716.23 1670.2 2749.92 1666.55 2762.04 1663.58 2760.22 1623.88 2759.07 1598.91 2759.09 1573.83 2756.49 1549.02 2753.22 1517.85 2777.6 1507.6 2803.09 1513.86 2853.31 1526.2 2903 1540.73 2953.37 1552.41 2970.38 1556.36 2990.38 1560.14 3003.47 1541.92 3010.27 1532.45 3016.83 1522.09 3020.35 1511.13 3036.54 1460.68 3066.08 1418.08 3097.43 1376.47 3111.12 1358.31 3111.4 1358.52 3091.89 1347.92 3085.04 1344.19 3078.24 1340.34 3071.32 1336.75 3023.03 1311.72 2974.71 1286.74 2923.82 1261.29Z" fill="#FAFAFA" fill-rule="evenodd"/></g></svg>