<svg width="2027" height="1228" xmlns="http://www.w3.org/2000/svg" xmlns:xlink="http://www.w3.org/1999/xlink" xml:space="preserve" overflow="hidden"><defs><clipPath id="clip0"><rect x="434" y="843" width="2027" height="1228"/></clipPath></defs><g clip-path="url(#clip0)" transform="translate(-434 -843)"><path d="M1809.52 1917.3C1762.8 1933.02 1717.21 1947.8 1671.73 1962.92 1604.38 1985.3 1537.19 2008.17 1469.77 2030.36 1429.56 2043.59 1389.15 2056.24 1348.64 2068.51 1324.65 2075.78 1311.37 2067.1 1294.76 2042.68 1269.14 2005.03 1241.9 1968.44 1214.23 1932.25 1184.02 1892.74 1152.7 1854.07 1121.58 1815.27 1096.7 1784.25 1069.6 1754.85 1046.7 1722.46 1014.75 1677.3 984.285 1630.92 955.976 1583.41 926.374 1533.72 899.426 1482.41 872.537 1431.17 850.786 1389.72 833.467 1345.74 809.345 1305.8 786.35 1267.73 759.123 1231.69 730.041 1197.96 700.402 1163.59 667.275 1131.98 633.795 1101.21 590.251 1061.19 544.442 1023.64 500.424 984.124 478.401 964.35 457.447 943.24 437.471 921.396 427.554 910.552 440.574 879.574 455.292 876.828 506.053 867.357 556.581 854.483 607.808 850.19 679.685 844.167 752.149 842.166 824.285 843.304 868.748 844.006 913.067 853.75 957.451 859.44 993.501 864.061 1029.58 868.52 1065.6 873.36 1106.55 878.862 1147.4 885.147 1188.4 890.242 1214.06 893.431 1240.05 894.081 1265.67 897.552 1355.04 909.665 1444.89 907.804 1534.66 907.513 1578.5 907.371 1622.38 906.284 1666.14 903.946 1696.7 902.313 1734.59 948.583 1718.16 984.579 1688 1050.64 1644.11 1104.5 1580.26 1141.81 1533.58 1169.08 1483.93 1181.77 1430.57 1186.75 1389.07 1190.62 1349.02 1185.13 1308.45 1179.56 1281.74 1175.9 1254.67 1174.9 1227.8 1172.29 1194.85 1169.1 1161.87 1162.01 1129.03 1162.72 1046.29 1164.49 1002.77 1251.91 1039.33 1313.28 1066.16 1358.34 1095.33 1402 1123.73 1446.11 1138.12 1468.45 1153.92 1489.93 1167.64 1512.65 1185.54 1542.27 1212.42 1559.48 1245.31 1559.75 1278.92 1560.03 1311.24 1549.58 1332.84 1519.74 1350.36 1495.55 1366.83 1470.51 1385.64 1447.37 1416.68 1409.2 1459.41 1388.22 1504.59 1371.88 1539.07 1359.41 1575.28 1356.95 1611.54 1354.33 1664.9 1350.48 1718.16 1345.33 1771.46 1340.83 1787.21 1339.5 1802.97 1338.28 1818.75 1337.38 1860.58 1334.96 1902.43 1333.03 1944.24 1330.39 1993.83 1327.25 2043.4 1323.72 2092.96 1320.11 2153.71 1315.67 2214.38 1309.64 2275.2 1306.87 2315.29 1305.05 2345.87 1327.78 2363.84 1360.68 2382.1 1394.12 2393 1431.63 2406.68 1467.52 2421.96 1507.6 2437.19 1547.72 2451.48 1588.16 2456.04 1601.08 2457.59 1615.07 2460.4 1628.59 2462.78 1640.02 2457.86 1649.58 2449.37 1655.59 2414.11 1680.58 2380.24 1708.6 2342.08 1728.16 2292.94 1753.36 2240.68 1772.84 2188.83 1792.3 2148.19 1807.56 2105.98 1818.63 2064.73 1832.33 2001.52 1853.32 1938.58 1875.12 1875.42 1896.28 1853.99 1903.47 1832.28 1909.79 1809.52 1917.3M1593.99 1091.74C1603.31 1083.56 1614.21 1076.6 1621.65 1066.97 1643.7 1038.38 1665.01 1009.16 1685.01 979.123 1688.65 973.671 1686.5 962.583 1683.94 955.151 1677.4 936.103 1659.59 935.117 1643.81 935.584 1612.81 936.503 1581.91 941.16 1550.93 941.718 1492.51 942.769 1434.06 942.26 1375.62 941.849 1359.28 941.734 1342.9 940.128 1326.62 938.454 1284.77 934.151 1242.97 929.338 1201.13 924.901 1167.07 921.289 1132.9 918.576 1098.93 914.286 1059.64 909.323 1020.53 902.874 981.291 897.454 960.758 894.618 940.063 892.952 919.526 890.135 889.123 885.965 858.789 877.462 828.441 877.519 759.693 877.647 690.739 871.471 622.126 883.292 572.874 891.778 523.108 897.275 470.048 904.591 474.657 911.401 476.694 915.873 479.993 919.026 493.502 931.939 507.178 944.696 521.189 957.062 568.123 998.484 615.929 1038.95 661.994 1081.31 688.119 1105.34 709.964 1134.07 736.466 1157.61 777.258 1193.85 808.352 1237.09 834.478 1284.08 857.93 1326.24 878.24 1370.15 901.282 1412.56 935.312 1475.19 969.362 1537.86 1005.67 1599.18 1029.06 1638.68 1055.62 1676.41 1082.43 1713.74 1101.36 1740.09 1123.15 1764.37 1143.54 1789.67 1175.56 1829.41 1208.06 1868.78 1239.28 1909.15 1268.98 1947.56 1297.75 1986.71 1325.85 2026.31 1331.99 2034.97 1337.31 2036.7 1346.24 2033.74 1365.04 2027.51 1383.93 2021.53 1402.75 2015.38 1469.19 1993.65 1535.72 1972.18 1602.02 1950.07 1674.02 1926.05 1745.69 1901.04 1817.74 1877.15 1888.26 1853.77 1959.16 1831.54 2029.73 1808.26 2093.48 1787.24 2157.08 1765.74 2220.6 1743.99 2290.97 1719.89 2356.97 1687.51 2416.18 1641.72 2427.02 1633.33 2427.51 1624.21 2425.08 1614.15 2421.61 1599.78 2416.26 1585.82 2411.13 1571.91 2390.23 1515.15 2368.57 1458.66 2348.27 1401.68 2337.88 1372.54 2319.05 1349.7 2289.61 1345.35 2256.03 1340.38 2221.06 1342.63 2186.86 1344.62 2131.75 1347.83 2076.8 1353.53 2021.75 1357.88 2001.44 1359.49 1981.04 1359.92 1960.73 1361.48 1903.4 1365.87 1846.11 1370.76 1788.77 1375.05 1765.6 1376.78 1742.3 1376.83 1719.16 1378.77 1669.83 1382.9 1620.63 1388.7 1571.25 1392.03 1533.13 1394.59 1499.27 1409.15 1466.37 1426 1425.6 1446.89 1396.81 1480.01 1373.69 1519.61 1341.14 1575.4 1291.42 1600.02 1226.58 1591.65 1193.88 1587.42 1169 1569.96 1149.64 1544.23 1138.36 1529.22 1127.79 1513.65 1117.4 1498.01 1084.02 1447.73 1050.37 1397.63 1017.8 1346.83 996.124 1313.02 986.856 1276.42 995.791 1235.77 1010.24 1170 1074.93 1124.31 1131.07 1127.98 1178.14 1131.05 1225.23 1135.43 1271.96 1141.78 1329.4 1149.6 1386.84 1158.91 1444.68 1151.09 1473.29 1147.23 1501.86 1138.94 1528.84 1128.51 1551.08 1119.91 1570.96 1105.19 1593.99 1091.74Z" fill="#FFFFFF" fill-rule="evenodd"/></g></svg>