<svg width="1729" height="1125" xmlns="http://www.w3.org/2000/svg" xmlns:xlink="http://www.w3.org/1999/xlink" xml:space="preserve" overflow="hidden"><defs><clipPath id="clip0"><rect x="1338" y="678" width="1729" height="1125"/></clipPath></defs><g clip-path="url(#clip0)" transform="translate(-1338 -678)"><path d="M3066.1 1699.67C3070.09 1739.54 3061.74 1754.42 3023.17 1770.11 2994.21 1781.88 2964.14 1790.92 2934.43 1800.79 2929.23 1802.52 2923.38 1802.93 2917.83 1802.93 2405.08 1803.02 1892.32 1803.04 1379.57 1802.87 1369.61 1802.87 1359.41 1801.59 1349.81 1799.06 1346.54 1798.2 1344.41 1791.83 1342.39 1787.67 1334.19 1770.84 1337.83 1751.55 1350.37 1737.94 1370.67 1715.92 1391.09 1693.93 1410.02 1670.75 1414.46 1665.3 1416.2 1654.11 1413.93 1647.32 1403.3 1615.53 1392.35 1583.67 1378.6 1553.15 1364.24 1521.28 1365.29 1489.1 1369.86 1456.14 1374.24 1424.62 1379.14 1393.17 1383.44 1361.64 1390.47 1310.12 1397.41 1258.58 1404 1207 1410.03 1159.8 1415.13 1112.47 1421.45 1065.3 1426.41 1028.27 1433.01 991.45 1438.13 954.429 1442.27 924.461 1444.82 894.271 1448.92 864.295 1455.56 815.637 1461.66 766.851 1470.36 718.548 1476.18 686.276 1508.94 671.737 1542.43 680.518 1584.32 691.506 1610.9 718.79 1631.35 754.916 1638.15 766.942 1646.73 778.598 1656.73 788.072 1703.37 832.276 1749.95 876.633 1798.5 918.679 1811.4 929.852 1830.68 935.229 1847.97 939.444 1890.62 949.845 1923.75 970.33 1937.47 1014.4 1945.08 1038.85 1940.59 1063.58 1938.63 1088.39 1936.8 1111.6 1934.75 1135.38 1938.03 1158.16 1939.77 1170.28 1950.41 1183.74 1960.83 1191.54 2009.28 1227.82 2058.97 1262.46 2108.41 1297.41 2132.4 1314.38 2157.93 1329.39 2180.61 1347.93 2192.2 1357.4 2200.7 1371.87 2207.52 1385.62 2213.74 1398.15 2193.34 1427.12 2173.94 1430.96 2154.22 1434.87 2133.49 1435.14 2113.26 1434.62 2094.87 1434.14 2076.57 1430.49 2058.23 1428.18 2003.82 1421.34 1949.47 1414 1894.98 1407.8 1857 1403.47 1818.84 1400.72 1780.76 1397.23 1756.12 1394.98 1731.52 1392.39 1706.86 1390.43 1680.25 1388.31 1660.53 1402.74 1644.28 1420.78 1629.94 1436.72 1618.74 1455.47 1604.31 1475.54 1611.62 1477.34 1616.5 1479.19 1621.52 1479.68 1905.31 1507.44 2189.88 1487.53 2474.03 1493.45 2501.52 1494.02 2529.08 1492.54 2556.52 1493.78 2590.72 1495.32 2601.2 1479.82 2603.38 1446.84 2608.13 1375.26 2576.14 1320.26 2515.63 1285.15 2484.31 1266.98 2447.9 1256.44 2412.66 1246.44 2360.38 1231.6 2321.12 1200.87 2292.76 1156 2278.33 1133.18 2269.91 1107.77 2266.42 1080.08 2261.18 1038.54 2273.31 1001.33 2289.01 964.618 2307.44 921.532 2326.19 878.547 2346.38 836.27 2361.79 804.001 2389.07 781.248 2421.21 769.112 2460.32 754.345 2490.32 764.39 2517.26 805.117 2569.72 884.421 2619.23 965.693 2669.08 1046.69 2719.81 1129.11 2769.56 1212.13 2819.59 1294.97 2869.26 1377.24 2918.39 1459.83 2968.46 1541.85 2992.97 1582.01 3019.25 1621.07 3044.31 1660.9 3051.95 1673.05 3058.18 1686.08 3066.1 1699.67M2326.85 1149.42C2330.8 1153.54 2335.13 1157.36 2338.65 1161.83 2355.01 1182.61 2375.02 1198.89 2399.99 1207.47 2423.95 1215.71 2448.68 1221.68 2473.02 1228.83 2523.87 1243.76 2567.32 1271.5 2597.39 1314.56 2626.24 1355.87 2644.73 1401.29 2635.56 1455.33 2626.61 1507.99 2608.01 1527.68 2561.41 1527.16 2259.16 1523.82 1956.69 1538.86 1654.67 1517.36 1633.13 1515.82 1611.52 1512.16 1590.53 1507.08 1570.79 1502.32 1563.22 1484.41 1572.69 1466.67 1580.73 1451.61 1590.35 1437.24 1600.45 1423.43 1623.25 1392.23 1649.88 1364.7 1689.8 1357.98 1707.7 1354.97 1726.81 1358.02 1745.27 1359.56 1780.53 1362.51 1815.75 1366 1850.92 1369.93 1887.63 1374.03 1924.22 1379.22 1960.92 1383.38 1986.07 1386.23 2011.32 1388.17 2036.54 1390.45 2074.64 1393.89 2112.71 1397.81 2150.89 1400.17 2157.57 1400.58 2164.67 1394.32 2171.58 1391.14 2167.82 1385.67 2165.13 1378.77 2160.1 1374.97 2141.06 1360.58 2121.26 1347.2 2101.74 1333.44 2051.37 1297.95 2000.14 1263.58 1951.05 1226.38 1932.14 1212.05 1914.82 1195.08 1905.22 1170.52 1891.6 1135.67 1901.58 1102.01 1907.69 1069.5 1914.7 1032.17 1898.39 986.958 1855.93 977.199 1827.15 970.583 1797.29 963.108 1774.24 943.237 1735.23 909.604 1696.07 875.838 1660.17 839.002 1632.98 811.094 1610.49 778.548 1586.46 747.633 1570.64 727.284 1552.19 712.026 1524.96 713.157 1513.56 713.631 1505.1 717.524 1503.35 732.474 1499 769.527 1492.1 806.273 1486.6 843.199 1481.76 875.792 1477.36 908.454 1472.89 941.101 1469.1 968.811 1465.58 996.559 1461.75 1024.26 1456.38 1062.99 1450.63 1101.66 1445.44 1140.41 1441.42 1170.39 1438.2 1200.47 1434.28 1230.46 1430.17 1262.06 1425.45 1293.57 1421.37 1325.17 1418.5 1347.41 1416.41 1369.75 1413.69 1392.01 1409.48 1426.46 1402.04 1460.83 1401.42 1495.33 1400.59 1541.32 1426.75 1580.38 1441.81 1622.23 1449.81 1644.48 1455.2 1666.61 1439.11 1686.89 1423.36 1706.73 1405.72 1725.08 1389.03 1744.19 1382.95 1751.16 1377.19 1758.42 1368.73 1768.63 1380.11 1768.63 1386.36 1768.63 1392.61 1768.63 1898.52 1768.63 2404.44 1768.7 2910.35 1768.28 2924.96 1768.27 2940.02 1764.41 2954.08 1759.88 2972.35 1753.99 2989.77 1745.47 3007.66 1738.35 3038.25 1726.18 3040.54 1718.27 3022.72 1690.58 2999.67 1654.76 2976.72 1618.85 2954.61 1582.44 2915.86 1518.64 2877.89 1454.38 2839.41 1390.42 2806.05 1334.98 2772.4 1279.71 2738.93 1224.34 2705.75 1169.45 2672.83 1114.41 2639.45 1059.65 2609.52 1010.54 2579.47 961.484 2548.79 912.841 2528.1 880.051 2507.29 847.224 2484.34 816.035 2474.89 803.204 2461.13 792.587 2441.4 797.543 2406.58 806.29 2385.28 830.994 2370.7 860.534 2350.27 901.919 2333.73 945.214 2315.16 987.53 2290.98 1042.63 2292.19 1095.91 2326.85 1149.42Z" fill="#FFFFFF" fill-rule="evenodd"/></g></svg>