<svg width="1809" height="1335" xmlns="http://www.w3.org/2000/svg" xmlns:xlink="http://www.w3.org/1999/xlink" xml:space="preserve" overflow="hidden"><defs><clipPath id="clip0"><rect x="1300" y="574" width="1809" height="1335"/></clipPath></defs><g clip-path="url(#clip0)" transform="translate(-1300 -574)"><path d="M2886.51 604.641C2916.57 594.172 2945.23 583.582 2974.49 575.036 2989.48 570.659 2999.05 580.772 3004.7 593.697 3038.4 670.783 3072.14 747.859 3105.33 825.166 3115.42 848.651 3103.87 880.168 3080.93 890.094 3026.18 913.778 2970.85 936.111 2915.9 959.334 2877.96 975.372 2840.33 992.166 2802.42 1008.3 2752.77 1029.43 2702.96 1050.18 2653.26 1071.21 2601.05 1093.3 2548.89 1115.53 2496.7 1137.69 2441.41 1161.16 2385.92 1184.17 2330.87 1208.18 2274.95 1232.57 2218.5 1256.03 2164.15 1283.57 2132.97 1299.38 2104.79 1321.54 2076.52 1342.53 2036.83 1371.99 1998.34 1403.06 1959.27 1433.37 1942.42 1446.44 1925.37 1459.27 1908.5 1472.33 1885.26 1490.33 1878.04 1515.37 1876.71 1543.37 1875.37 1571.59 1870.74 1599.07 1852.76 1622.33 1849.31 1626.8 1845.79 1631.33 1841.69 1635.18 1799.9 1674.3 1756.66 1712.01 1716.71 1752.92 1699.24 1770.82 1687.35 1794.61 1674.9 1816.83 1663.01 1838.08 1654.28 1861.08 1643.05 1882.74 1632.44 1903.18 1596.41 1915.79 1570.99 1905.12 1523.64 1885.24 1477.21 1863.11 1430.83 1841.02 1399.63 1826.16 1368.38 1811.07 1338.79 1793.34 1327.92 1786.83 1316.71 1773.41 1314.45 1761.48 1309.04 1732.79 1308.61 1703.13 1306.57 1673.84 1304.05 1637.72 1301.33 1601.59 1300.03 1565.41 1299.66 1555.22 1303.2 1544.63 1306.29 1534.63 1319.89 1490.55 1332.63 1446.12 1348.66 1402.92 1353.98 1388.56 1365.78 1373.5 1378.78 1365.65 1428.46 1335.66 1478.96 1306.71 1530.87 1280.82 1571.69 1260.45 1614.78 1244.48 1657.38 1227.87 1682.11 1218.22 1702.11 1229.08 1711.68 1254.5 1713.84 1260.22 1715.97 1265.99 1718.71 1271.44 1722.81 1279.57 1726.99 1283.68 1738.53 1280.12 1761.47 1273.03 1806.8 1301.23 1814.94 1325.28 1826.36 1359 1837.66 1392.77 1849.21 1426.46 1854.5 1441.88 1859.24 1443.24 1871.56 1433.77 1941.02 1380.38 2010.5 1327.02 2079.94 1273.62 2092.93 1263.63 2103.19 1253.64 2092.93 1234.68 2085.46 1220.88 2090.25 1206.21 2102.2 1196.85 2129.57 1175.42 2156.57 1152.89 2186.41 1135.41 2220.49 1115.44 2257.45 1100.35 2293.25 1083.35 2306.39 1077.11 2319.8 1071.45 2335.12 1064.61 2333.79 1058.44 2333.14 1051.84 2330.96 1045.8 2316.77 1006.57 2302.82 967.222 2287.66 928.353 2273.91 893.116 2282.34 868.652 2315.86 853.449 2387.31 821.033 2458.95 789.013 2530.38 756.539 2587.66 730.5 2644.34 703.115 2702.04 678.046 2747.5 658.295 2794.08 641.133 2840.19 622.886 2855.21 616.942 2870.3 611.2 2886.51 604.641M3075.03 846.1C3070.7 832.645 3067.35 818.772 3061.86 805.809 3042.94 761.129 3023.37 716.724 3003.84 672.302 2994.02 649.946 2983.76 627.782 2973.51 605.122 2929.48 622.811 2886.97 639.4 2844.85 656.907 2767.61 689.006 2690.41 721.183 2613.59 754.247 2571.68 772.284 2530.6 792.239 2489.12 811.27 2433.96 836.58 2378.66 861.606 2323.78 887.523 2319.15 889.709 2314.19 898.05 2314.75 902.917 2315.93 913.187 2320.32 923.179 2323.99 933.064 2337.77 970.119 2352.29 1006.91 2365.54 1044.15 2374.71 1069.92 2368.13 1085.01 2343.96 1096.65 2300.71 1117.47 2256.51 1136.47 2214.19 1159.01 2189.68 1172.06 2168.1 1190.6 2145.13 1206.56 2124.11 1221.16 2124.16 1221.06 2133.13 1244.93 2134.67 1249.05 2135.07 1253.6 2136.2 1258.86 2167.29 1245.2 2197.96 1231.93 2228.47 1218.3 2285.06 1193.01 2341.25 1166.78 2398.18 1142.29 2469.76 1111.49 2542 1082.24 2613.77 1051.89 2632.64 1043.92 2650.52 1033.6 2669.4 1025.65 2713.51 1007.08 2758.03 989.49 2802.23 971.126 2849.59 951.449 2896.75 931.263 2944.05 911.438 2983.12 895.064 3022.4 879.176 3061.24 862.281 3066.4 860.038 3069.52 853.127 3075.03 846.1M1432.13 1804.44C1441.03 1808.94 1449.82 1813.68 1458.86 1817.88 1497.01 1835.63 1534.84 1854.16 1573.59 1870.5 1595.69 1879.82 1609.72 1873.6 1620.03 1853.88 1628.26 1838.12 1637.96 1822.6 1642.98 1805.78 1659.82 1749.36 1705.73 1716.73 1744.6 1678.42 1769.64 1653.76 1797.14 1631.55 1821.61 1606.38 1830.4 1597.34 1836.22 1583.38 1838.78 1570.73 1845.06 1539.72 1848.66 1508.17 1853.03 1478.86 1843.32 1469.93 1828.28 1462.17 1823.12 1450.18 1809.1 1417.61 1799.12 1383.3 1787.83 1349.58 1780.2 1326.81 1755.53 1310.45 1731.97 1313.09 1706.49 1315.93 1702.29 1313.71 1690.86 1290.48 1688.17 1285 1686.48 1279.04 1683.79 1273.56 1678.33 1262.48 1669.43 1257.93 1657.71 1262.74 1629.46 1274.32 1600.74 1285.07 1573.45 1298.66 1522.04 1324.25 1471.45 1351.52 1420.61 1378.28 1402.58 1387.78 1385.44 1398.25 1378.5 1419.44 1369.17 1447.98 1357.66 1475.93 1350.18 1504.93 1342.55 1534.51 1326.6 1561.43 1332.65 1595.47 1340.42 1639.16 1339.21 1684.38 1344.9 1728.55 1346.52 1741.13 1340.35 1758.73 1358.59 1767.21 1382.71 1778.41 1406.2 1790.97 1432.13 1804.44Z" fill="#FBFBFB" fill-rule="evenodd"/></g></svg>