<svg width="1987" height="1285" xmlns="http://www.w3.org/2000/svg" xmlns:xlink="http://www.w3.org/1999/xlink" xml:space="preserve" overflow="hidden"><defs><clipPath id="clip0"><rect x="587" y="535" width="1987" height="1285"/></clipPath></defs><g clip-path="url(#clip0)" transform="translate(-587 -535)"><path d="M2432.41 1682.04C2472.76 1705.09 2511.09 1729.66 2552.08 1748.42 2576.36 1759.53 2581.23 1785.73 2562.86 1807.46 2552.56 1819.64 2524.75 1824.63 2508.53 1814.75 2487.12 1801.73 2465.37 1788.25 2447.07 1771.38 2422.91 1749.11 2392.64 1742.87 2363.68 1732.89 2321.61 1718.4 2278.53 1706.7 2236.97 1690.95 2187.15 1672.08 2139 1648.79 2089.17 1629.95 2024.37 1605.44 1964.02 1572.92 1905.25 1536.67 1849.31 1502.18 1792.28 1469.43 1735.91 1435.62 1686.16 1405.77 1636.87 1375.15 1586.97 1345.55 1544.24 1320.19 1499.98 1297.29 1458.14 1270.57 1414.71 1242.81 1373.29 1211.88 1331.15 1182.11 1316.73 1171.93 1317.22 1155.76 1320.5 1141.94 1322.78 1132.28 1320.3 1128.17 1313.72 1124.49 1252.01 1089.98 1190.08 1055.85 1128.43 1021.24 1080.77 994.477 1033.11 967.689 986.016 939.959 943.696 915.044 901.768 889.418 860.36 863.018 818.766 836.5 786.85 799.554 755.658 761.998 741.66 745.144 727.479 728.398 712.571 712.357 701.801 700.767 689.63 704.72 678.268 712.322 665.414 720.922 654.173 730.703 636.171 729.555 606.136 727.638 580.135 693.849 588.632 664.498 599.355 627.459 628.08 608.602 660.967 595.347 684.837 585.725 709.555 577.739 734.491 571.348 766.6 563.119 799.113 556.061 831.806 550.624 866.544 544.847 901.602 540.307 936.702 537.689 955.121 536.315 975.292 529.965 992.233 543.485 998.028 548.11 1004.54 554.256 1006.44 560.927 1014.57 589.509 1035.47 597.441 1061.78 598.46 1086.7 599.427 1111.75 602.857 1136.49 601.299 1164.65 599.528 1192.45 592.647 1220.57 589.507 1237.51 587.616 1255.26 585.885 1271.78 588.879 1309.24 595.67 1342.78 611.696 1371.41 637.892 1412.21 675.232 1453.91 711.602 1495.22 748.389 1508.94 760.614 1519.57 760.027 1528.94 744.754 1568.81 679.704 1641.49 688.677 1688.29 722.307 1744.46 762.662 1799.99 804.436 1851.86 850.068 1899.11 891.631 1944.74 936.206 1984.38 984.898 2025.85 1035.83 2059.35 1093.25 2096.33 1147.84 2102.53 1157 2108.75 1166.16 2114.92 1175.36 2133.06 1202.4 2132.35 1216.98 2113.86 1243.74 2102.85 1259.68 2099.65 1276.92 2110.86 1294.83 2142.83 1345.89 2172.02 1398.94 2207.13 1447.74 2244.99 1500.38 2285.85 1551.41 2330.14 1598.7 2359.64 1630.2 2397.44 1653.92 2432.41 1682.04M632.021 689.142C637.962 687.998 645.115 688.59 649.646 685.427 677.98 665.649 716.979 657.257 743.492 690.46 763.491 715.504 784.526 739.783 806.09 763.503 845.979 807.381 891.63 843.468 944.332 871.813 1015.68 910.187 1084.9 952.487 1155.36 992.529 1211.9 1024.66 1269.06 1055.69 1325.66 1087.71 1346.36 1099.42 1362.65 1113.91 1358.16 1142.1 1357.07 1148.91 1363.1 1160.06 1369.24 1164.3 1416.11 1196.63 1463.53 1228.17 1511.35 1259.08 1543.36 1279.77 1576.1 1299.35 1608.88 1318.81 1644.99 1340.25 1681.57 1360.89 1717.84 1382.05 1769.22 1412.03 1820.65 1441.93 1871.77 1472.33 1916.91 1499.18 1960.13 1529.78 2007.02 1553.06 2059.01 1578.87 2114.15 1598.36 2168.01 1620.39 2223.51 1643.09 2278.95 1665.98 2334.79 1687.81 2351.66 1694.41 2369.8 1697.78 2387.36 1702.63 2388.13 1701.04 2388.89 1699.44 2389.65 1697.86 2374.11 1684.61 2357.79 1672.16 2343.19 1657.95 2311.01 1626.61 2277.62 1596.15 2248.6 1562.04 2216.2 1523.98 2186.38 1483.41 2158.58 1441.83 2128.57 1396.92 2101.39 1350.04 2074.64 1303.08 2064.37 1285.06 2061.7 1264.25 2072.33 1244.32 2076.45 1236.58 2081.07 1229.07 2086.03 1221.83 2091.78 1213.42 2092.97 1206.78 2085.85 1197.33 2073.23 1180.61 2062.09 1162.61 2051.79 1144.32 2012.53 1074.57 1963.89 1011.79 1907.71 955.237 1870.24 917.522 1830.45 881.904 1789.81 847.603 1750.18 814.163 1709 782.361 1666.77 752.282 1646.29 737.692 1620.81 727.238 1595.37 736.843 1581.41 742.115 1568.6 754.662 1559.2 766.936 1538.52 793.912 1507.49 802.529 1480.55 780.938 1435.98 745.231 1393.38 707.023 1350.82 668.898 1309.25 631.661 1263.6 615.214 1207.78 631.6 1188.2 637.348 1166.85 639.384 1146.35 639.158 1114.25 638.806 1082.16 632.979 1050.11 633.363 1014.25 633.794 991.078 617.076 977.33 586.617 972.079 574.987 965.191 573.708 955.592 574.553 933.255 576.517 910.963 578.971 888.656 581.245 864.633 583.694 839.89 583.322 816.739 589.208 766.137 602.073 716.183 617.602 666.287 633.082 640.143 641.194 627.403 661.677 632.021 689.142M2519.58 1783.05C2523.97 1782.29 2528.37 1781.53 2532.76 1780.77 2529.81 1777.38 2527.49 1772.39 2523.77 1770.89 2514.19 1767.04 2503.99 1764.73 2494.03 1761.81 2493.3 1763.79 2492.55 1765.77 2491.81 1767.75 2500.43 1772.19 2509.04 1776.63 2519.58 1783.05Z" fill="#FFFFFF" fill-rule="evenodd"/></g></svg>