<svg width="1248" height="1347" xmlns="http://www.w3.org/2000/svg" xmlns:xlink="http://www.w3.org/1999/xlink" xml:space="preserve" overflow="hidden"><defs><clipPath id="clip0"><rect x="1581" y="568" width="1248" height="1347"/></clipPath></defs><g clip-path="url(#clip0)" transform="translate(-1581 -568)"><path d="M1966.69 1500.73C1947.64 1409.64 1929.61 1319.73 1910.72 1230 1900.19 1179.99 1887.19 1130.49 1877.19 1080.38 1866.69 1027.72 1858.1 974.459 1863.26 920.531 1865.55 896.594 1854.9 882.202 1837.05 870.122 1797.9 843.63 1758.73 817.168 1719.7 790.52 1708.18 782.662 1696.71 774.664 1685.84 765.958 1658.31 743.908 1641.43 715.006 1639.9 679.909 1638.31 643.35 1657.86 615.13 1686.66 595.413 1714.61 576.274 1748.31 566.785 1781.41 568.124 1832.92 570.208 1884.26 577.947 1935.51 584.492 1971.92 589.141 2008.19 595.11 2044.3 601.727 2072.58 606.911 2087.57 628.975 2082.62 657.368 2079.48 675.476 2092.5 683.827 2103.16 691.748 2141.26 720.068 2180.98 746.214 2219.09 774.526 2249.39 797.041 2276.2 790.965 2304.4 770.574 2323.24 756.952 2343.49 744.851 2364.33 734.512 2405.97 713.847 2450.42 722.955 2474.21 764.012 2498.13 805.284 2519.51 848.169 2539.7 891.425 2562.94 941.237 2600.4 972.052 2652.84 986.642 2691.12 997.289 2729.03 1009.26 2767.01 1020.94 2789.86 1027.97 2808.1 1041.84 2819.84 1062.51 2824.86 1071.36 2828.15 1082.5 2828.25 1092.64 2828.96 1163.67 2829.47 1234.72 2828.33 1305.74 2827.57 1354.03 2824.31 1402.3 2821.65 1450.55 2819.85 1483.29 2817.45 1516 2814.78 1548.68 2812.95 1571.11 2810.96 1593.57 2807.6 1615.8 2805.26 1631.33 2778.95 1648.41 2762.85 1646.56 2723.17 1642 2683.56 1636.58 2643.78 1633.07 2605.45 1629.69 2566.98 1627.51 2528.52 1626.38 2514.89 1625.98 2499.88 1627.44 2487.68 1632.92 2466.79 1642.3 2469.87 1680.49 2489.09 1690.93 2499.42 1696.55 2511.86 1700.9 2523.44 1701.12 2577.26 1702.18 2631.11 1701.51 2684.95 1701.62 2741.11 1701.73 2791.74 1750.45 2788.4 1813.8 2785.82 1862.8 2730.8 1912.33 2680.15 1911.66 2587.38 1910.43 2494.58 1911.01 2401.8 1911.36 2148.29 1912.34 1894.78 1913.34 1641.27 1915 1598.52 1915.28 1577.47 1878.52 1581.48 1852.45 1584.82 1830.79 1595.98 1812.92 1616.19 1800.72 1632.88 1790.65 1647.47 1777.14 1663.21 1765.44 1710.81 1730.04 1764.6 1709.2 1823.07 1702.17 1849.26 1699.02 1876.13 1701.6 1902.68 1701.6 1938.77 1701.58 1974.9 1702.85 2010.92 1701.27 2054.36 1699.37 2097.97 1697.03 2140.99 1691.11 2169.7 1687.16 2180.58 1650.47 2164.61 1625.89 2147.63 1599.77 2120.19 1591.59 2093.85 1581.41 2071.21 1572.66 2047.97 1565.47 2025.11 1557.29 1997.7 1547.47 1975.11 1532.41 1966.69 1500.73M2530.92 951.869C2523.59 938.088 2516.06 924.409 2508.97 910.5 2488.3 869.897 2468.12 829.036 2447.08 788.622 2438.04 771.255 2421.36 756.521 2403.46 761.028 2379.01 767.183 2354.99 779.786 2334.09 794.373 2282.32 830.527 2255.63 841.399 2198.54 804.675 2165.86 783.657 2133.38 762.116 2102.5 738.594 2072.81 715.984 2036.2 696.525 2044.31 648.377 2044.87 645.032 2036.62 637.483 2031.51 636.398 2014.59 632.804 1997.08 632.066 1980.07 628.815 1910.68 615.555 1840.84 607.776 1770.07 608.178 1744.42 608.324 1720.82 615.205 1701.96 631.084 1685.46 644.967 1674.7 662.349 1679.4 688.321 1684.71 717.716 1703.9 733.982 1724.79 748.923 1768.14 779.93 1812.64 809.362 1857.16 838.699 1892.46 861.961 1905.19 892.835 1898.04 934.928 1894.61 955.118 1897.38 977.01 1900.75 997.574 1907.49 1038.78 1916.34 1079.66 1924.75 1120.58 1937.73 1183.71 1951.36 1246.71 1964.18 1309.88 1974.35 1359.96 1984.03 1410.15 1993.33 1460.4 1998.8 1489.97 2008.62 1513.95 2041.67 1523.91 2079.1 1535.18 2115.88 1549.19 2151.89 1564.5 2202.14 1585.86 2226.73 1646.85 2196.35 1696.2 2176.92 1727.76 2145.12 1734.83 2112.06 1735.65 2025.78 1737.78 1939.46 1738.43 1853.16 1739.36 1806.2 1739.86 1760.5 1745.74 1720.51 1772.63 1689.15 1793.71 1658.64 1816.08 1628.27 1838.58 1619.64 1844.98 1614.6 1854.23 1618.78 1866.17 1623.45 1879.48 1634.38 1876.89 1644.3 1876.89 1982.23 1876.92 2320.16 1876.95 2658.09 1876.77 2669.91 1876.76 2681.85 1875.34 2693.51 1873.3 2731.95 1866.56 2762.16 1822.45 2750.17 1787.91 2740.54 1760.2 2712.86 1736.35 2679.84 1736.2 2661.7 1736.12 2643.56 1738.98 2625.41 1739.27 2591.62 1739.8 2557.82 1739.77 2524.03 1739.33 2483.88 1738.8 2450.9 1719.59 2439.28 1681.48 2428.99 1647.78 2443.82 1604.26 2483.83 1595.3 2501.76 1591.28 2520.44 1588.23 2538.7 1588.6 2577.68 1589.41 2616.62 1592.47 2655.54 1595.21 2666.63 1595.99 2677.53 1599.26 2688.61 1600.64 2712.58 1603.61 2736.61 1606.11 2760.61 1608.76 2770.21 1609.82 2773.24 1605.39 2773.84 1595.86 2776.78 1549.57 2780.96 1503.36 2783.8 1457.06 2786.68 1410.02 2789.04 1362.94 2790.63 1315.84 2791.8 1281.32 2791.48 1246.75 2791.61 1212.2 2791.75 1176.11 2791.28 1140.01 2791.77 1103.93 2792.03 1084.19 2783.93 1069.49 2766.07 1062.42 2737.42 1051.09 2708.7 1038.72 2678.85 1031.88 2622.56 1018.98 2570.34 1000.5 2530.92 951.869Z" fill="#FEFEFE" fill-rule="evenodd"/></g></svg>