<svg width="1842" height="1187" xmlns="http://www.w3.org/2000/svg" xmlns:xlink="http://www.w3.org/1999/xlink" xml:space="preserve" overflow="hidden"><defs><clipPath id="clip0"><rect x="1282" y="647" width="1842" height="1187"/></clipPath></defs><g clip-path="url(#clip0)" transform="translate(-1282 -647)"><path d="M3111.02 1723.58C3115.62 1742.22 3123.17 1759.31 3123.96 1776.69 3125.11 1801.9 3102.65 1819.17 3072.45 1820.03 3055.85 1820.5 3039.23 1820.19 3022.62 1820.09 3011.29 1820.02 3001.81 1821.04 2991.52 1829.39 2983.97 1835.53 2969.11 1833.83 2957.54 1833.65 2924.01 1833.11 2890.5 1830.51 2856.99 1830.67 2802.77 1830.93 2749.69 1823.75 2698.12 1807.6 2641.54 1789.88 2591.21 1759.92 2545 1723.17 2496.4 1684.52 2455.12 1639.09 2421.93 1586.49 2419.68 1582.92 2415.94 1576.67 2417.2 1575.07 2427.98 1561.35 2417.07 1553.75 2410.57 1543.65 2376.19 1490.26 2340.91 1437.34 2321.59 1375.83 2313.6 1350.4 2303 1325.81 2294.62 1300.5 2289.56 1285.21 2287.1 1269.08 2282.14 1253.75 2280.68 1249.25 2275.01 1243.5 2270.69 1242.96 2244.27 1239.68 2230.58 1227.88 2227.88 1201.7 2226.8 1191.17 2230.27 1180.23 2229.58 1169.61 2228.35 1150.75 2227.91 1131.34 2222.96 1113.31 2200.7 1032.37 2176.94 951.847 2153.82 871.148 2149.68 856.718 2144.32 842.382 2142.39 827.628 2137.11 787.123 2111.25 768.668 2074.26 765.081 2030.87 760.875 1987.14 758.144 1943.59 758.494 1919.63 758.686 1894.72 766.793 1883.33 791.34 1864.8 831.232 1828.44 842.876 1791.15 853.657 1742 867.868 1692.61 881.249 1643.45 895.424 1621.61 901.722 1614.32 899.705 1602.11 881.404 1591.85 866.012 1581.81 862.585 1564.33 871.124 1507.72 898.777 1456.53 933.967 1420.47 986.688 1410.85 1000.75 1407.32 1019.43 1402.89 1036.48 1394.92 1067.14 1354.11 1085.71 1334.81 1064.73 1322.97 1051.86 1317.64 1032.89 1309.87 1016.43 1302.28 1000.37 1295.99 983.662 1287.91 967.864 1275 942.63 1283.51 913.187 1310.88 906.444 1345.13 898.005 1363.54 873.011 1385.66 849.91 1400.09 834.842 1418.8 822.703 1437.6 813.228 1499.79 781.885 1561.66 749.351 1626.06 723.195 1667.43 706.396 1712.98 699.852 1756.72 688.996 1789.6 680.835 1822.61 673.157 1855.55 665.211 1907.28 652.731 1959.55 644.175 2012.95 647.864 2048.9 650.348 2084.72 654.829 2120.64 657.834 2132.58 658.833 2145.67 655.165 2156.38 658.918 2165.44 662.09 2177.51 672.24 2178.46 680.444 2185.24 738.546 2209.58 790.687 2231.09 843.712 2255.78 904.566 2283.29 964.294 2307.16 1025.45 2316.57 1049.58 2319.75 1076.19 2325.33 1101.76 2334.69 1144.71 2359.25 1179.89 2381.36 1216.74 2401.94 1251.08 2420.43 1287.07 2435.89 1323.99 2448.48 1354.04 2452.77 1387.55 2465.15 1417.72 2481.49 1457.53 2509.3 1489.38 2547.4 1510.72 2572.1 1524.55 2615.92 1518.5 2637.16 1497.81 2657.69 1477.8 2676.9 1456.42 2696.41 1435.39 2735.7 1393.04 2787.24 1386.98 2837.56 1411.97 2871.06 1428.61 2903.95 1446.59 2936.39 1465.22 2987.12 1494.35 3037.24 1524.52 3087.61 1554.28 3126.07 1577.02 3110.47 1615.86 3087.81 1634.02 3082.64 1638.16 3076.56 1641.17 3069.4 1645.64 3092.51 1666.67 3102.57 1693.98 3111.02 1723.58M3093.72 1753.31C3085.74 1730.82 3078.9 1707.84 3069.42 1686.01 3062.24 1669.49 3049.07 1666.47 3034.83 1678.02 3012.86 1695.83 2992.28 1715.37 2971.32 1734.41 2956.95 1747.47 2936.14 1748.38 2926.14 1735.91 2913.19 1719.76 2916.37 1702.52 2934.65 1689.77 2948.87 1679.84 2964.06 1671.03 2977.05 1659.69 2998.65 1640.82 3020.85 1625.1 3051.03 1623.78 3065.83 1623.13 3087.58 1606 3085.44 1594.82 3083.6 1585.17 3073.6 1575.17 3064.64 1569.16 3043.31 1554.86 3020.68 1542.42 2998.18 1529.94 2938.65 1496.93 2879.37 1463.41 2819.06 1431.85 2782.35 1412.64 2731.24 1426.82 2707.35 1460.26 2684.92 1491.65 2658.94 1521.34 2620.4 1535.67 2592.56 1546.02 2562.69 1551.95 2537.79 1535.81 2483.16 1500.4 2442.71 1452.8 2426.61 1387.03 2414.03 1335.65 2397.78 1285.16 2367.84 1240.72 2336.17 1193.7 2305.76 1147.02 2298.02 1088.39 2291.87 1041.79 2271.11 999.233 2252.01 956.391 2228.42 903.5 2205.85 850.051 2185.63 795.802 2172.88 761.589 2165.52 725.386 2154.89 690.333 2153.79 686.695 2146.95 682.549 2142.74 682.51 2128.16 682.374 2113.37 685.9 2099.02 684.472 2068.4 681.426 2038.12 674.763 2007.49 672.108 1960.37 668.025 1914.38 677.522 1868.72 687.939 1822.57 698.468 1776.36 708.793 1730.4 720.092 1681.3 732.162 1631.55 742.185 1585.78 765.282 1548.48 784.104 1510.04 800.757 1473.3 820.579 1448.38 834.027 1422.66 848.304 1402.46 867.616 1377.72 891.263 1359.09 920.795 1321.51 927.518 1310.15 929.55 1302.46 938.911 1309.41 953.254 1316.94 968.793 1323.24 984.928 1330.13 1000.78 1337.53 1017.8 1344.98 1034.79 1352.43 1051.86 1371.38 1045.68 1378.79 1035.56 1382.05 1021.39 1384.29 1011.66 1386.19 1001.57 1390.34 992.622 1405.04 960.898 1427.12 934.765 1454.89 913.746 1479.47 895.139 1503.37 874.927 1530.19 860.204 1553.83 847.23 1579.94 827.652 1608.68 850.904 1616.64 857.347 1622.42 866.488 1629.23 874.422 1632.29 873.352 1635.38 872.114 1638.55 871.187 1697.25 854.062 1756.04 837.222 1814.63 819.723 1831.25 814.758 1845.76 806.349 1854.33 789.663 1871.92 755.408 1901.05 735.683 1938.79 734.195 1990.8 732.145 2043.49 729.665 2094.31 744.41 2117.9 751.255 2144.37 757.107 2153.62 785.514 2167.03 826.716 2180.8 867.832 2192.8 909.451 2209.29 966.638 2226.03 1023.86 2239.21 1081.85 2246.88 1115.58 2267.82 1148.52 2251.82 1185.49 2250.57 1188.39 2250.43 1192.98 2251.89 1195.61 2257.2 1205.2 2254.09 1223.51 2276.28 1216.09 2284.29 1213.4 2295.96 1218.61 2300.2 1232.08 2314.01 1275.96 2330.22 1319.08 2344.04 1362.96 2364.62 1428.29 2402.68 1484.11 2438.76 1541.05 2440.85 1544.34 2447.93 1548.57 2449.11 1547.67 2459.53 1539.73 2463.88 1549.14 2468.68 1554.37 2487.8 1575.15 2505.45 1597.36 2525.37 1617.31 2559.92 1651.91 2596.63 1683.89 2638.18 1710.38 2691.31 1744.24 2749.64 1762.66 2811.35 1767.8 2865.22 1772.29 2919.57 1771.39 2973.71 1771.57 2989.75 1771.62 2998.98 1777.32 3002.53 1791.09 3013.51 1792.84 3023.4 1795.05 3033.41 1795.82 3043.66 1796.62 3054.04 1796.45 3064.32 1795.92 3096.61 1794.25 3103.49 1784.8 3093.72 1753.31M2672.64 1754.84C2723.97 1780.88 2779.21 1788.32 2835.83 1789.12 2852.38 1789.36 2868.98 1788.79 2885.47 1789.87 2919.15 1792.08 2952.76 1795.15 2988.15 1798.01 2985.81 1780.89 2975.52 1782.64 2966.45 1782.28 2908.67 1780.01 2850.82 1778.72 2793.12 1775.09 2749.13 1772.31 2707.29 1759 2668.01 1739.38 2622.42 1716.62 2581.7 1686.21 2545.23 1650.84 2514.05 1620.6 2485.06 1588.1 2452.89 1554.27 2453.28 1559.83 2452.1 1564.7 2454 1566.83 2485.58 1602.29 2516.7 1638.24 2549.79 1672.25 2567.33 1690.29 2587.47 1706.29 2608.27 1720.53 2627.56 1733.75 2649.29 1743.41 2672.64 1754.84M2475.13 1628.75C2463.27 1611.43 2451.6 1593.99 2439.32 1576.97 2437.9 1575.01 2433.13 1575.46 2429.92 1574.79 2430.49 1577.32 2430.34 1580.39 2431.75 1582.31 2445.25 1600.73 2458.53 1619.33 2472.79 1637.15 2516.89 1692.22 2571.17 1734.88 2632.96 1768.58 2690.05 1799.73 2751.85 1814.69 2815.75 1819.49 2868.54 1823.45 2921.7 1822.49 2974.7 1823.25 2979.06 1823.32 2983.47 1819.83 2987.86 1818 2926.24 1811.51 2865.77 1809.32 2805.35 1806.17 2782.01 1804.95 2757.98 1804.57 2735.68 1798.56 2687.66 1785.6 2642.34 1765.76 2600.46 1737.96 2554.46 1707.44 2514.63 1670.23 2475.13 1628.75M2969.91 1703.93C2971.08 1700.67 2972.25 1697.41 2973.43 1694.15 2971.9 1692.84 2970.37 1691.52 2968.84 1690.21 2960.12 1698.83 2951.27 1707.33 2943 1716.38 2942.52 1716.9 2946.8 1721.77 2950.08 1726.31 2957.17 1718.69 2962.96 1712.46 2969.91 1703.93Z" fill="#FCFCFC" fill-rule="evenodd"/></g></svg>