<svg width="1934" height="1250" xmlns="http://www.w3.org/2000/svg" xmlns:xlink="http://www.w3.org/1999/xlink" xml:space="preserve" overflow="hidden"><defs><clipPath id="clip0"><rect x="1235" y="613" width="1934" height="1250"/></clipPath></defs><g clip-path="url(#clip0)" transform="translate(-1235 -613)"><path d="M1482.58 615.563C1499.07 615.563 1514.05 616.58 1528.84 615.344 1556.57 613.027 1573.26 627.344 1584.41 650.273 1610.69 704.312 1637.93 757.942 1662.3 812.838 1687.66 869.963 1715.39 925.904 1750.35 977.441 1784.4 1027.65 1823.13 1074.69 1860.04 1122.95 1891.66 1164.27 1923.44 1205.48 1955.46 1246.5 1996.42 1298.98 2037.28 1351.56 2079.33 1403.16 2085.1 1410.25 2097.22 1414.77 2106.83 1415.63 2132.33 1417.9 2159.3 1411.52 2182.4 1426.77 2195.55 1435.45 2208.73 1445.6 2218.26 1457.9 2231.75 1475.29 2248.46 1484.83 2269.24 1488.18 2328.08 1497.64 2387.1 1506.02 2445.84 1516.03 2515.4 1527.88 2584.65 1541.53 2654.21 1553.38 2712.96 1563.39 2772.08 1571.23 2830.82 1581.33 2899.24 1593.09 2967.49 1605.95 3035.69 1618.98 3064.38 1624.46 3093.79 1628.78 3121 1638.73 3153.55 1650.62 3167.17 1679.42 3168.84 1712.67 3171.07 1757.13 3150.17 1790 3115.01 1816.09 3069.74 1849.7 3019.31 1864.48 2963.46 1862.88 2919.63 1861.63 2875.66 1862.37 2832.02 1858.89 2793.17 1855.79 2754.72 1847.87 2716.03 1842.52 2680.04 1837.55 2643.94 1833.39 2607.95 1828.42 2577.01 1824.16 2546.16 1819.28 2515.27 1814.61 2485.51 1810.12 2455.73 1805.74 2426.02 1800.96 2393.62 1795.75 2361.33 1789.81 2328.9 1784.78 2301.85 1780.59 2274.64 1777.42 2247.55 1773.48 2206.72 1767.54 2165.93 1761.36 2125.14 1755.22 2097.58 1751.07 2070.03 1746.87 2042.5 1742.58 1991.34 1734.61 1940.1 1727.11 1889.12 1718.15 1875.75 1715.81 1865.01 1707.74 1862.32 1691.79 1861.6 1687.52 1853.85 1681.03 1849.75 1681.33 1832.6 1682.61 1815.55 1685.74 1798.58 1688.82 1759.99 1695.81 1721.64 1696.74 1682.89 1688.87 1647.49 1681.67 1611.61 1676.86 1576.06 1670.35 1531.05 1662.1 1489.31 1645.13 1456.89 1612.48 1431.28 1586.7 1406.57 1558.92 1387.22 1528.38 1372.62 1505.34 1363.62 1477.24 1358.17 1450.18 1330.46 1312.49 1343.13 1172.81 1340.62 1033.89 1340.38 1020.28 1338.03 1010.61 1323.55 1005.59 1304.71 999.06 1303.52 980.265 1299.44 964.693 1290.48 930.521 1283.72 895.771 1274.57 861.659 1263.01 818.603 1248.88 776.225 1237.87 733.04 1227.15 690.918 1247.21 647.711 1285.41 628.102 1295.43 622.958 1307.45 619.969 1318.74 619.337 1369.04 616.519 1419.4 614.849 1469.75 613.007 1473.46 612.871 1477.24 614.666 1482.58 615.563M1742.46 1029.99C1734.6 1018.55 1726.15 1007.48 1719.01 995.607 1697.96 960.58 1675.43 926.239 1657.1 889.808 1619.21 814.487 1583.91 737.87 1546.68 662.209 1543.83 656.411 1534.23 650.542 1527.73 650.506 1497.65 650.335 1467.57 652.354 1437.48 653.326 1397.66 654.612 1357.84 655.578 1318.02 656.92 1314.33 657.045 1310.5 658.464 1307.06 660.001 1276.67 673.559 1265.47 700.322 1275.89 737.529 1289.1 784.698 1303.62 831.5 1316.85 878.663 1324.31 905.23 1329.85 932.332 1337.28 958.906 1339.1 965.442 1343.57 973.383 1349.14 976.341 1370.1 987.491 1378.28 1003.64 1378.54 1027.35 1379.97 1156.53 1371.73 1285.97 1388.44 1414.78 1393.94 1457.19 1407.22 1495.93 1432.32 1531.39 1471.51 1586.76 1521.63 1623.99 1589.18 1636.11 1620.33 1641.7 1651.23 1649.96 1682.62 1652.59 1717.29 1655.49 1752.5 1655.04 1787.26 1652.78 1812.01 1651.17 1836.37 1643.9 1860.99 1639.63 1881.56 1636.06 1898.16 1645.3 1900.5 1661.56 1901.47 1668.26 1900.66 1675.2 1900.66 1684.19 1938.69 1689.94 1976.5 1695.6 2014.29 1701.38 2049 1706.69 2083.68 1712.18 2118.38 1717.5 2150.89 1722.49 2183.39 1727.62 2215.96 1732.22 2250.81 1737.14 2285.79 1741.09 2320.6 1746.26 2363.58 1752.63 2406.44 1759.79 2449.33 1766.66 2477.37 1771.15 2505.36 1775.86 2533.41 1780.27 2556.55 1783.91 2579.72 1787.39 2602.92 1790.66 2638.86 1795.73 2674.83 1800.68 2710.81 1805.46 2752.37 1810.97 2793.92 1816.76 2835.58 1821.41 2856.93 1823.8 2878.75 1822.42 2899.98 1825.44 2948.65 1832.38 2997.32 1831.59 3042.86 1814.01 3096.09 1793.45 3134.67 1770.14 3128.4 1706.73 3126.69 1689.33 3121 1676 3105.4 1671.54 3074.67 1662.76 3043.27 1656.01 3011.83 1650.05 2974.1 1642.9 2936.02 1637.63 2898.14 1631.23 2861.4 1625.03 2824.72 1618.47 2788.02 1612.02 2745.32 1604.52 2702.62 1596.96 2659.92 1589.45 2630.9 1584.35 2601.9 1579.06 2572.82 1574.29 2538.75 1568.7 2504.56 1563.81 2470.48 1558.21 2434.82 1552.34 2399.27 1545.82 2363.61 1539.92 2327.36 1533.93 2290.76 1529.72 2254.85 1522.16 2227.42 1516.39 2202.1 1505.12 2188.95 1476.81 2186.56 1471.65 2180.49 1467.76 2175.41 1464.35 2152.11 1448.69 2125.38 1449.45 2099.26 1450.9 2077.25 1452.13 2062.4 1441.47 2050.15 1426.16 2012.05 1378.51 1974.58 1330.36 1936.98 1282.32 1904.65 1241 1872.46 1199.58 1840.26 1158.16 1807.7 1116.3 1775.2 1074.4 1742.46 1029.99Z" fill="#FFFFFF" fill-rule="evenodd"/></g></svg>