<svg width="1850" height="1369" xmlns="http://www.w3.org/2000/svg" xmlns:xlink="http://www.w3.org/1999/xlink" xml:space="preserve" overflow="hidden"><defs><clipPath id="clip0"><rect x="1129" y="499" width="1850" height="1369"/></clipPath></defs><g clip-path="url(#clip0)" transform="translate(-1129 -499)"><path d="M2944.08 499C2976.44 513.56 2981.78 532.463 2977.91 567.888 2974.11 602.705 2966.89 637.146 2961.28 671.771 2952.36 726.846 2933.16 778.274 2904.96 826.188 2876.52 874.503 2840.79 916.79 2796.96 952.107 2784.65 962.027 2773.01 972.845 2761.6 983.81 2730.82 1013.4 2692.73 1030.08 2653.11 1042.46 2633.13 1048.7 2611.07 1049.49 2589.87 1050.26 2556.69 1051.48 2523.38 1051.75 2490.23 1050.19 2467.22 1049.1 2448.29 1054.36 2432.77 1071.73 2418.24 1087.99 2401.95 1102.84 2388.9 1120.17 2383.51 1127.33 2384.65 1139.35 2382.69 1149.13 2375.75 1183.83 2352.73 1198.81 2319.46 1205.91 2290.6 1212.07 2260.61 1219.66 2235.22 1233.92 2182.31 1263.63 2134.11 1300.97 2106.74 1357.35 2078.01 1416.53 2032.85 1456.73 1974.14 1483.88 1943.25 1498.17 1912.37 1513.14 1889.62 1539.66 1867.73 1565.18 1845.39 1590.51 1825.75 1617.73 1805.99 1645.1 1779.2 1662.83 1750.57 1677.69 1729.29 1688.73 1706.17 1697.96 1682.79 1702.8 1655.35 1708.5 1630.91 1697.02 1612.15 1676.17 1599.9 1662.55 1587.65 1658.94 1570.97 1668.61 1540.08 1686.51 1506.03 1691.31 1470.81 1689.98 1428.84 1688.39 1390.72 1699.19 1356.4 1724.1 1334.37 1740.09 1316.87 1759.32 1304.09 1783.4 1287.36 1814.92 1269.08 1844.36 1233.37 1859.54 1191.52 1877.34 1156.87 1866.02 1138.94 1835.2 1119.09 1801.08 1130.18 1769.84 1161.4 1749.62 1204.95 1721.42 1250.06 1695.51 1295.32 1670.06 1346.22 1641.45 1397.15 1612.6 1449.84 1587.61 1472.68 1576.78 1499.96 1575.32 1525.23 1569.65 1540.85 1566.14 1558.17 1565.9 1571.79 1558.67 1612.45 1537.09 1645.83 1546.02 1677.45 1576.22 1692.15 1590.25 1714.51 1590.78 1731.53 1580.56 1737.23 1577.14 1742.67 1572.83 1748.84 1570.73 1780.62 1559.92 1797.71 1541.42 1800.63 1504.73 1803.59 1467.62 1872.55 1406.68 1928.85 1424.25 1973.84 1438.29 2026.95 1382.57 2009.77 1343.59 2002.53 1327.16 2012.45 1311.9 2030.51 1298.98 2072.2 1269.15 2113.08 1238.16 2155.23 1208.99 2180.99 1191.16 2207.32 1173.32 2235.61 1160.26 2254.64 1151.47 2277.56 1151.22 2298.65 1146.72 2303.9 1145.6 2308.79 1142.83 2313.75 1140.86 2306.82 1129.81 2298.32 1120.53 2294.78 1109.64 2288.74 1091.08 2304.07 1079.75 2314.44 1068.05 2336.56 1043.11 2359.64 1019 2382.7 994.916 2416.61 959.49 2451.01 924.535 2484.91 889.091 2527.76 844.277 2568.56 797.324 2613.49 754.711 2659.67 710.913 2709.71 671.18 2758.14 629.765 2788.47 603.828 2819 578.127 2849.35 552.208 2866.91 537.213 2883 520.017 2902.21 507.638 2913.32 500.483 2929.33 500.934 2944.08 499M2942.88 535.431C2936.56 528.8 2930.34 523.745 2921.19 531.819 2906.03 545.197 2890.49 558.146 2875.03 571.18 2831.69 607.719 2789.72 646.079 2744.59 680.271 2679.98 729.231 2624.47 787.566 2567.72 844.666 2529.7 882.918 2493.53 923.002 2456.51 962.244 2453.37 965.571 2449.96 968.644 2446.84 971.989 2424.56 995.882 2402.22 1019.71 2380.12 1043.77 2364.21 1061.08 2348.31 1078.43 2333.2 1096.43 2330.71 1099.4 2330.31 1107.07 2332.41 1110.35 2336.89 1117.32 2343.64 1122.83 2350.93 1130.49 2352.62 1127.01 2355.41 1123.54 2355.97 1119.74 2358.61 1101.81 2367.04 1087.41 2380.75 1075.8 2389.77 1068.15 2399.42 1061.03 2407.36 1052.37 2431.3 1026.29 2461 1015.68 2495.8 1016.1 2534.72 1016.58 2573.69 1017.23 2612.57 1015.74 2629.42 1015.09 2646.78 1011.22 2662.7 1005.46 2704.88 990.18 2739.69 964.203 2772.41 933.036 2810.46 896.791 2848.44 861.361 2875.01 815.389 2895.48 779.992 2913.9 743.486 2922.92 703.57 2932.69 660.315 2939.89 616.441 2946.9 572.626 2948.7 561.374 2945.55 549.33 2942.88 535.431M1550.86 1641.94C1586.78 1623.37 1616.84 1629.4 1642.54 1661.53 1651.8 1673.1 1667.41 1675.78 1681.36 1672.27 1697.77 1668.15 1713.81 1661.72 1729.2 1654.55 1778.05 1631.8 1809.13 1590.2 1840.91 1548.97 1854.82 1530.91 1871.53 1514.61 1888.82 1499.66 1905.42 1485.3 1924.41 1473.72 1942.55 1460.78 1941.67 1459.78 1940.81 1457.8 1939.55 1457.5 1910.26 1450.68 1882.32 1450.8 1859.03 1473.82 1844.22 1488.47 1829 1501.76 1829.63 1526.3 1830.17 1547.69 1820.09 1566.78 1801.63 1578.68 1784.96 1589.42 1766.9 1598.09 1749.15 1607.07 1709.77 1626.99 1681.48 1622.3 1648.51 1592.81 1633.59 1579.46 1617.06 1572.18 1595.87 1582.95 1581.88 1590.06 1565.78 1593.57 1550.24 1596.93 1523.71 1602.67 1495.22 1602.94 1470.55 1612.9 1432.88 1628.12 1397.2 1648.66 1361.66 1668.71 1305.86 1700.19 1250.78 1732.95 1195.67 1765.63 1185.69 1771.55 1173.47 1777.89 1168.73 1787.28 1164 1796.67 1163.28 1812.57 1168.38 1821.1 1173.12 1829.04 1188.15 1835.58 1198.08 1834.86 1236.66 1832.02 1256.38 1804.43 1273.56 1773.2 1299.6 1725.88 1336.72 1690.91 1388.65 1671.6 1421.34 1659.44 1454.53 1660.39 1488.12 1658.29 1508.48 1657.01 1528.38 1648.59 1550.86 1641.94M2044.56 1329.37C2043.01 1332.81 2040.21 1336.22 2040.12 1339.7 2039.67 1357.84 2039.91 1376 2039.91 1399.24 2077.55 1363.17 2088.07 1312.82 2123.72 1280.05 2122.5 1279.04 2121.29 1278.02 2120.08 1277 2095.58 1293.86 2071.09 1310.72 2044.56 1329.37Z" fill="#FFFFFF" fill-rule="evenodd"/></g></svg>