<svg width="1925" height="1322" xmlns="http://www.w3.org/2000/svg" xmlns:xlink="http://www.w3.org/1999/xlink" xml:space="preserve" overflow="hidden"><defs><clipPath id="clip0"><rect x="612" y="451" width="1925" height="1322"/></clipPath></defs><g clip-path="url(#clip0)" transform="translate(-612 -451)"><path d="M1519.2 1320.86C1503.16 1294.9 1504.43 1267.64 1511.4 1241.62 1520.8 1206.52 1533.96 1172.42 1545.64 1137.93 1564.52 1082.18 1563.72 1028.88 1531.58 976.88 1511.56 944.519 1495.85 909.502 1478.19 875.688 1468.99 858.061 1460.25 840.163 1450.41 822.896 1429.54 786.296 1457.82 749.755 1495.7 747.049 1527.21 744.798 1558.74 742.706 1590.2 739.892 1594.21 739.533 1601.18 735.05 1601.05 732.788 1600.72 726.688 1599.07 717.718 1594.82 715.252 1568.28 699.84 1541.54 684.421 1513.55 671.954 1493.04 662.816 1470.72 657.291 1448.76 652.067 1441.62 650.37 1431.4 652.409 1425.39 656.677 1382.92 686.822 1341.14 717.922 1299.23 748.857 1255.04 781.485 1210.82 814.083 1166.87 847.035 1119.25 882.735 1071.99 918.917 1024.45 954.721 969.079 996.417 914.17 1038.76 857.836 1079.12 834.907 1095.54 821.49 1116.6 814.863 1142.58 809.777 1162.52 826.031 1184.93 846.967 1190.34 866.181 1195.31 885.427 1200.27 904.354 1206.21 948.814 1220.14 972.125 1260.69 962.324 1305.97 954.4 1342.58 903.353 1373.15 866.237 1359.49 844.053 1351.33 823.466 1336.65 804.766 1321.65 763.324 1288.42 722.832 1253.91 683.277 1218.45 651.849 1190.27 635.398 1152.5 622.088 1113.18 606.159 1066.13 612.46 1018.83 618.26 971.203 622.817 933.792 625.123 896.112 628.954 858.604 634.385 805.428 640.257 752.299 646.019 699.159 650.56 657.286 655.137 615.418 659.845 573.564 666.588 513.611 707.391 477.68 763.899 465.472 840.548 448.913 918.545 450.126 996.248 452.135 1030.27 453.015 1064.12 460.281 1098.06 464.503 1119.71 467.196 1141.43 469.451 1163.07 472.215 1190.83 475.759 1218.75 478.479 1246.22 483.641 1277.6 489.54 1309.82 493.271 1338.01 478.041 1392.6 448.548 1438.87 465.144 1486.12 494.949 1511.38 510.885 1539.29 522.954 1566.82 534.873 1585.57 542.986 1603.48 534.797 1621.09 526.961 1643.64 516.933 1666.27 506.366 1689.89 499.648 1720.13 491.048 1761.96 511.592 1777.03 533.16 1795.92 560.206 1808.56 589.622 1816.26 621.978 1824.97 658.596 1850.02 685.245 1878.33 708.605 1907.84 732.965 1937.76 756.836 1967.45 780.998 2004.5 811.162 2041.61 841.255 2078.47 871.658 2107.56 895.655 2136.19 920.216 2165.24 944.261 2201.54 974.303 2238.14 1003.98 2274.45 1033.99 2317.37 1069.45 2360.89 1104.23 2402.69 1140.97 2434.66 1169.08 2464.81 1199.33 2494.94 1229.46 2521.13 1255.64 2537.72 1286.41 2536.98 1325.02 2535.87 1382.42 2494.84 1432.12 2435.82 1442.11 2400.75 1448.06 2365.5 1459.77 2333.48 1475.33 2283.76 1499.49 2236.78 1529.24 2188.51 1556.41 2163.87 1570.29 2138.74 1583.31 2114.24 1597.44 2094.01 1609.11 2093.1 1611.97 2104.95 1630.36 2133.36 1674.44 2125.43 1710.78 2071.54 1740.69 2034.96 1761 1996.08 1770.34 1955.51 1772.83 1935.81 1774.04 1915.74 1768.87 1901.03 1752.44 1850.36 1695.86 1799.53 1639.43 1748.7 1583 1726 1557.81 1702.94 1532.95 1680.37 1507.64 1635.18 1456.97 1590.09 1406.19 1545.22 1355.23 1535.98 1344.74 1527.9 1333.23 1519.2 1320.86M1061.92 882.935C1116.35 841.537 1170.62 799.93 1225.25 758.801 1282.23 715.9 1339.09 672.802 1397.1 631.329 1410.06 622.064 1428.95 612.077 1442.82 614.659 1501.3 625.541 1557.2 645.498 1607.14 679.084 1636.75 698.998 1645.8 721.01 1636.13 746.041 1625.52 773.504 1601.11 775.625 1577.01 777.937 1550.6 780.472 1524.17 782.828 1497.71 784.769 1476.89 786.296 1478.03 797.157 1484.9 810.884 1501.98 845.011 1520.56 878.386 1538.28 912.206 1553.89 942.018 1572.28 970.867 1583.78 1002.22 1600.45 1047.64 1596.18 1094.66 1581.54 1140.46 1570.11 1176.22 1557.14 1211.5 1546.57 1247.5 1539.65 1271.12 1538.98 1295.28 1557 1315.58 1594.98 1358.37 1633.19 1400.96 1671.3 1443.64 1728.51 1507.71 1785.73 1571.77 1842.92 1635.87 1870.58 1666.87 1897.94 1698.16 1926.08 1728.72 1930.1 1733.09 1937.69 1736.01 1943.8 1736.33 1988.18 1738.66 2028.67 1726.27 2066.11 1702.71 2080.3 1693.77 2086.67 1681.43 2082.65 1665.47 2080.7 1657.7 2075.18 1650.7 2070.76 1643.68 2053.75 1616.66 2057.96 1589.91 2082.03 1575.36 2091.45 1569.66 2101.47 1564.96 2110.94 1559.32 2156.72 1532 2201.62 1503.09 2248.39 1477.57 2283.69 1458.31 2320.59 1441.41 2358.15 1427.02 2388.89 1415.24 2421.89 1409.48 2453.46 1399.64 2481.49 1390.91 2507.53 1346.38 2502.26 1317.53 2497.96 1293.99 2487.79 1273.23 2470.43 1256.15 2445.33 1231.46 2421.23 1205.72 2395.5 1181.73 2371.1 1158.97 2345.5 1137.44 2319.77 1116.18 2284.76 1087.27 2248.88 1059.4 2213.81 1030.56 2177.75 1000.92 2142.43 970.369 2106.38 940.712 2064.37 906.159 2021.62 872.513 1979.75 837.802 1934.17 800.023 1888.75 762.019 1844.27 722.972 1828.44 709.08 1811.99 693.775 1802.18 675.671 1788.42 650.246 1779.98 621.818 1770.35 594.294 1755.81 552.731 1730.56 530.259 1694.38 534.931 1675.43 537.377 1656.84 547.537 1639.56 556.933 1607 574.651 1572.78 578.362 1539.83 564.207 1504.78 549.147 1471.77 529.061 1438.72 509.712 1417.8 497.463 1398.49 491.277 1374.47 502.617 1342.44 517.731 1308.51 527.733 1272.24 523.659 1243.86 520.472 1215.5 517.058 1187.23 513.079 1124.54 504.253 1062.16 490.583 999.194 487.048 919.603 482.581 839.293 482.857 760.924 503.152 727.655 511.767 703.745 532.295 698.243 566.311 690.186 616.123 686.032 666.574 680.53 716.788 677.766 742.018 676.047 767.364 673.229 792.587 669.057 829.944 663.962 867.198 659.959 904.572 657.018 932.036 656.202 959.748 652.618 987.112 648.321 1019.93 642.902 1051.65 651.956 1085.38 663.79 1129.48 682.448 1169 714.324 1201.14 734.818 1221.81 758.341 1239.54 780.993 1257.98 806.725 1278.94 832.401 1300.05 859.234 1319.54 879.638 1334.36 906.814 1328.36 921.599 1308.14 934.63 1290.33 930.216 1260.56 908.303 1249.1 884.751 1236.79 858.563 1228.86 832.8 1221.58 792.758 1210.26 778.254 1181.43 782.53 1137.16 786.616 1094.87 812.457 1068.8 843.911 1045.65 870.782 1025.88 897.614 1006.06 924.331 986.075 969.557 952.254 1014.68 918.292 1061.92 882.935Z" fill="#FEFEFE" fill-rule="evenodd"/></g></svg>