<svg width="2024" height="1283" xmlns="http://www.w3.org/2000/svg" xmlns:xlink="http://www.w3.org/1999/xlink" xml:space="preserve" overflow="hidden"><defs><clipPath id="clip0"><rect x="437" y="341" width="2024" height="1283"/></clipPath></defs><g clip-path="url(#clip0)" transform="translate(-437 -341)"><path d="M648.119 1502.63C610.372 1530.22 574.054 1557.94 537.31 1585.08 523.14 1595.54 507.432 1603.95 493.454 1614.64 477.817 1626.61 461.608 1627.35 447.617 1615.41 434.371 1604.1 435.471 1586.42 440.434 1571.48 450.99 1539.71 463.174 1508.46 475.517 1477.32 492.543 1434.37 507.603 1390.32 528.645 1349.39 545.982 1315.66 568.569 1283.93 592.771 1254.57 639.09 1198.37 688.36 1144.62 736.086 1089.57 752.222 1070.97 768.829 1052.49 782.56 1032.15 794.126 1015.03 799.982 994.023 811.638 976.976 835.738 941.729 867.844 917.923 911.821 910.849 942.689 905.881 967.123 887.356 990.443 866.716 1047.76 815.986 1106.64 767.044 1164.04 716.407 1212.35 673.785 1271.14 651.112 1328.86 626.045 1374.77 606.105 1420.76 586.317 1466.29 565.547 1544.43 529.903 1622.37 493.798 1700.16 457.389 1743.06 437.313 1785.29 415.839 1828.16 395.713 1863.49 379.125 1899.05 362.983 1934.98 347.752 1976.32 330.228 2005.28 349.57 2027.01 374.279 2044.07 393.672 2052.64 396.031 2075.18 385.316 2097.47 374.715 2119.41 363.248 2142.16 353.749 2176.53 339.4 2207.74 345.101 2234.48 371.876 2298.03 435.504 2362.24 498.497 2424.73 563.146 2438.01 576.884 2449.49 595.453 2454.22 613.756 2465.96 659.115 2418.83 696.933 2377.83 690.604 2344.23 685.42 2326.71 659.607 2305.75 638.382 2284.72 617.1 2265.78 593.766 2245.31 571.917 2232.4 558.142 2216.74 564.205 2203.97 571.048 2128.07 611.73 2051.35 650.542 1969.48 677.908 1912.73 696.878 1855.37 714.052 1798.65 733.107 1776.52 740.539 1757.71 754.52 1743.95 773.541 1739.5 779.691 1738.15 789.079 1737.86 797.079 1736.08 845.608 1737.26 893.932 1764.73 936.645 1779.48 959.585 1803.61 972.187 1828.15 979.337 1868.91 991.211 1911.02 998.403 1952.55 1007.61 1988.72 1015.63 2024.91 1023.58 2061.03 1031.81 2090.12 1038.44 2119.32 1044.75 2148.12 1052.48 2181.05 1061.32 2211.12 1074.55 2223.79 1110.52 2233 1136.67 2226.23 1161.35 2218.95 1186.39 2213.24 1206.03 2201.05 1226.04 2215.41 1246.46 2222.8 1256.97 2230.83 1269.51 2241.64 1274.67 2276.87 1291.51 2313.64 1305.04 2349.55 1320.47 2375.81 1331.75 2403.72 1340.92 2427.17 1356.59 2461.21 1379.35 2471.82 1418.16 2448.55 1462.41 2431.86 1494.15 2414.13 1525.69 2393.45 1554.89 2372.63 1584.26 2343.16 1601.18 2305.31 1602.6 2248.79 1604.73 2195.31 1589.34 2144.58 1569.15 2092.42 1548.39 2044.53 1517.6 2001.58 1479.96 1948.27 1433.22 1900.98 1381.53 1859.1 1324.19 1833.78 1289.52 1805.23 1256.72 1774.84 1226.37 1743.72 1195.29 1701.62 1181.88 1660.41 1169.51 1622.4 1158.11 1583.85 1147.81 1544.91 1140.34 1508.17 1133.3 1469.8 1126.16 1434.53 1145.55 1402.64 1163.07 1371.48 1182.26 1341.6 1203.02 1276.19 1248.48 1202.88 1275 1127.17 1296.37 1078.39 1310.13 1029.72 1324.31 980.82 1337.63 946.556 1346.96 926.624 1331.25 926.466 1295.97 926.445 1291.99 926.463 1288.01 926.463 1282.88 833.466 1356.59 741.422 1429.56 648.119 1502.63M2285.82 471.328C2261.13 446.603 2236.43 421.881 2211.74 397.152 2201.38 386.77 2188.63 378.055 2174.37 382.482 2149.9 390.078 2125.26 398.788 2102.86 411.01 2062.69 432.925 2027.47 434.983 1994.99 391.422 1990.71 385.67 1983.12 381.51 1976.2 378.752 1957.26 371.194 1940.68 382.613 1924.91 389.228 1883.28 406.699 1842.78 426.904 1801.97 446.324 1744.84 473.513 1687.98 501.259 1630.75 528.234 1584.99 549.806 1539.01 570.959 1492.83 591.615 1437.57 616.329 1381.85 640.018 1326.58 664.71 1281.72 684.75 1235.94 703.447 1197.45 734.984 1170.88 756.751 1145.57 780.049 1119.51 802.428 1080.68 835.756 1041.45 868.624 1002.83 902.189 977.64 924.08 948.951 938.828 916.509 945.528 886.253 951.774 860.733 965.305 844.118 991.569 825.922 1020.34 810.039 1050.56 792.153 1079.54 786.599 1088.53 777.614 1095.36 770.525 1103.47 731.584 1148.02 692.787 1192.69 653.852 1237.25 638.261 1255.09 621.331 1271.88 606.963 1290.64 578.246 1328.14 555.42 1369.27 538.145 1413.27 516.312 1468.89 495.015 1524.71 472.127 1583.97 481.145 1580.89 488.192 1580.16 493.092 1576.53 526.674 1551.67 559.932 1526.35 593.053 1500.87 639.503 1465.14 686.104 1429.58 731.968 1393.1 775.8 1358.24 818.821 1322.35 862.094 1286.79 876.962 1274.57 891.233 1261.6 906.287 1249.62 924.143 1235.42 953.004 1245.12 959.05 1262.39 963.545 1275.23 964.246 1289.4 967.092 1305.56 990.581 1299.36 1014.18 1293.68 1037.43 1286.85 1076 1275.52 1114.59 1264.16 1152.72 1251.47 1187.64 1239.85 1223.98 1230.19 1256.1 1212.98 1305.24 1186.65 1350.67 1153.5 1398.96 1125.46 1418.5 1114.11 1440.91 1103.73 1462.92 1101.39 1515.26 1095.83 1567.14 1105.56 1617.41 1119.91 1657.02 1131.23 1695.94 1145.52 1734.08 1161.15 1756.37 1170.27 1779.74 1181.2 1796.87 1197.41 1823.32 1222.42 1845.51 1252.1 1868.3 1280.76 1920.97 1346.96 1970.11 1416.14 2039.91 1466.72 2088.48 1501.91 2137.36 1535.35 2196.36 1551.7 2232.81 1561.8 2269.07 1570.28 2307.01 1567.78 2324.92 1566.61 2341.12 1562.49 2354.78 1547.76 2387.08 1512.92 2405.88 1470.2 2427.11 1428.98 2432.65 1418.25 2428.66 1405.44 2419.04 1394.88 2394.96 1368.42 2360.82 1361.85 2330.39 1348.1 2290.85 1330.25 2250.25 1314.65 2211.2 1295.82 2187.52 1284.41 2171.21 1241.06 2177.43 1214.84 2180.99 1199.83 2184.69 1184.82 2189.05 1170.03 2203.95 1119.4 2189.88 1100.38 2148.6 1087.44 2106.01 1074.08 2061.64 1066.37 2017.97 1056.53 1985.01 1049.1 1952.13 1041.03 1918.85 1035.4 1873.53 1027.74 1828.85 1020.97 1787.03 998.495 1751.83 979.578 1727.88 953.723 1717.5 916.48 1710.25 890.422 1709.08 862.728 1702.89 836.303 1688.64 775.456 1727.74 722.887 1779.81 704.98 1853.17 679.751 1927.64 657.346 1999.62 628.661 2060.88 604.249 2120 574.048 2178.69 543.76 2216.51 524.245 2255.26 526.064 2278 552.629 2305.15 584.371 2333.08 615.478 2361.36 646.236 2374.63 660.672 2394.44 661.243 2409.58 649.497 2423.7 638.551 2425.68 625.18 2414.71 606.575 2409.66 598.004 2403.71 589.639 2396.75 582.569 2360.6 545.815 2323.99 509.509 2285.82 471.328Z" fill="#FFFFFF" fill-rule="evenodd"/></g></svg>